%TF.GenerationSoftware,KiCad,Pcbnew,7.0.2*%
%TF.CreationDate,2023-06-25T17:45:46+05:30*%
%TF.ProjectId,Receiver,52656365-6976-4657-922e-6b696361645f,rev?*%
%TF.SameCoordinates,Original*%
%TF.FileFunction,Legend,Top*%
%TF.FilePolarity,Positive*%
%FSLAX46Y46*%
G04 Gerber Fmt 4.6, Leading zero omitted, Abs format (unit mm)*
G04 Created by KiCad (PCBNEW 7.0.2) date 2023-06-25 17:45:46*
%MOMM*%
%LPD*%
G01*
G04 APERTURE LIST*
%ADD10C,0.150000*%
%ADD11C,0.120000*%
%TA.AperFunction,NonConductor*%
%ADD12C,0.200000*%
%TD*%
%ADD13C,0.300000*%
%TA.AperFunction,NonConductor*%
%ADD14C,0.300000*%
%TD*%
%TA.AperFunction,ComponentPad*%
%ADD15R,2.200000X2.200000*%
%TD*%
%TA.AperFunction,ComponentPad*%
%ADD16O,2.200000X2.200000*%
%TD*%
%TA.AperFunction,ComponentPad*%
%ADD17C,10.160000*%
%TD*%
%TA.AperFunction,ComponentPad*%
%ADD18R,2.400000X2.400000*%
%TD*%
%TA.AperFunction,ComponentPad*%
%ADD19O,2.400000X2.400000*%
%TD*%
%TA.AperFunction,ComponentPad*%
%ADD20R,1.905000X2.000000*%
%TD*%
%TA.AperFunction,ComponentPad*%
%ADD21O,1.905000X2.000000*%
%TD*%
%TA.AperFunction,Conductor*%
%ADD22C,2.000000*%
%TD*%
G04 APERTURE END LIST*
D10*
%TO.C,D1*%
X81672619Y-82018094D02*
X80672619Y-82018094D01*
X80672619Y-82018094D02*
X80672619Y-81779999D01*
X80672619Y-81779999D02*
X80720238Y-81637142D01*
X80720238Y-81637142D02*
X80815476Y-81541904D01*
X80815476Y-81541904D02*
X80910714Y-81494285D01*
X80910714Y-81494285D02*
X81101190Y-81446666D01*
X81101190Y-81446666D02*
X81244047Y-81446666D01*
X81244047Y-81446666D02*
X81434523Y-81494285D01*
X81434523Y-81494285D02*
X81529761Y-81541904D01*
X81529761Y-81541904D02*
X81625000Y-81637142D01*
X81625000Y-81637142D02*
X81672619Y-81779999D01*
X81672619Y-81779999D02*
X81672619Y-82018094D01*
X81672619Y-80494285D02*
X81672619Y-81065713D01*
X81672619Y-80779999D02*
X80672619Y-80779999D01*
X80672619Y-80779999D02*
X80815476Y-80875237D01*
X80815476Y-80875237D02*
X80910714Y-80970475D01*
X80910714Y-80970475D02*
X80958333Y-81065713D01*
X81302619Y-76461904D02*
X80302619Y-76461904D01*
X81302619Y-75890476D02*
X80731190Y-76319047D01*
X80302619Y-75890476D02*
X80874047Y-76461904D01*
%TO.C,J2*%
X46802619Y-92028333D02*
X47516904Y-92028333D01*
X47516904Y-92028333D02*
X47659761Y-92075952D01*
X47659761Y-92075952D02*
X47755000Y-92171190D01*
X47755000Y-92171190D02*
X47802619Y-92314047D01*
X47802619Y-92314047D02*
X47802619Y-92409285D01*
X46897857Y-91599761D02*
X46850238Y-91552142D01*
X46850238Y-91552142D02*
X46802619Y-91456904D01*
X46802619Y-91456904D02*
X46802619Y-91218809D01*
X46802619Y-91218809D02*
X46850238Y-91123571D01*
X46850238Y-91123571D02*
X46897857Y-91075952D01*
X46897857Y-91075952D02*
X46993095Y-91028333D01*
X46993095Y-91028333D02*
X47088333Y-91028333D01*
X47088333Y-91028333D02*
X47231190Y-91075952D01*
X47231190Y-91075952D02*
X47802619Y-91647380D01*
X47802619Y-91647380D02*
X47802619Y-91028333D01*
%TO.C,D3*%
X81672619Y-107418094D02*
X80672619Y-107418094D01*
X80672619Y-107418094D02*
X80672619Y-107179999D01*
X80672619Y-107179999D02*
X80720238Y-107037142D01*
X80720238Y-107037142D02*
X80815476Y-106941904D01*
X80815476Y-106941904D02*
X80910714Y-106894285D01*
X80910714Y-106894285D02*
X81101190Y-106846666D01*
X81101190Y-106846666D02*
X81244047Y-106846666D01*
X81244047Y-106846666D02*
X81434523Y-106894285D01*
X81434523Y-106894285D02*
X81529761Y-106941904D01*
X81529761Y-106941904D02*
X81625000Y-107037142D01*
X81625000Y-107037142D02*
X81672619Y-107179999D01*
X81672619Y-107179999D02*
X81672619Y-107418094D01*
X80672619Y-106513332D02*
X80672619Y-105894285D01*
X80672619Y-105894285D02*
X81053571Y-106227618D01*
X81053571Y-106227618D02*
X81053571Y-106084761D01*
X81053571Y-106084761D02*
X81101190Y-105989523D01*
X81101190Y-105989523D02*
X81148809Y-105941904D01*
X81148809Y-105941904D02*
X81244047Y-105894285D01*
X81244047Y-105894285D02*
X81482142Y-105894285D01*
X81482142Y-105894285D02*
X81577380Y-105941904D01*
X81577380Y-105941904D02*
X81625000Y-105989523D01*
X81625000Y-105989523D02*
X81672619Y-106084761D01*
X81672619Y-106084761D02*
X81672619Y-106370475D01*
X81672619Y-106370475D02*
X81625000Y-106465713D01*
X81625000Y-106465713D02*
X81577380Y-106513332D01*
X81302619Y-101861904D02*
X80302619Y-101861904D01*
X81302619Y-101290476D02*
X80731190Y-101719047D01*
X80302619Y-101290476D02*
X80874047Y-101861904D01*
%TO.C,J1*%
X160642619Y-91758333D02*
X161356904Y-91758333D01*
X161356904Y-91758333D02*
X161499761Y-91805952D01*
X161499761Y-91805952D02*
X161595000Y-91901190D01*
X161595000Y-91901190D02*
X161642619Y-92044047D01*
X161642619Y-92044047D02*
X161642619Y-92139285D01*
X161642619Y-90758333D02*
X161642619Y-91329761D01*
X161642619Y-91044047D02*
X160642619Y-91044047D01*
X160642619Y-91044047D02*
X160785476Y-91139285D01*
X160785476Y-91139285D02*
X160880714Y-91234523D01*
X160880714Y-91234523D02*
X160928333Y-91329761D01*
%TO.C,D4*%
X96912619Y-107418094D02*
X95912619Y-107418094D01*
X95912619Y-107418094D02*
X95912619Y-107179999D01*
X95912619Y-107179999D02*
X95960238Y-107037142D01*
X95960238Y-107037142D02*
X96055476Y-106941904D01*
X96055476Y-106941904D02*
X96150714Y-106894285D01*
X96150714Y-106894285D02*
X96341190Y-106846666D01*
X96341190Y-106846666D02*
X96484047Y-106846666D01*
X96484047Y-106846666D02*
X96674523Y-106894285D01*
X96674523Y-106894285D02*
X96769761Y-106941904D01*
X96769761Y-106941904D02*
X96865000Y-107037142D01*
X96865000Y-107037142D02*
X96912619Y-107179999D01*
X96912619Y-107179999D02*
X96912619Y-107418094D01*
X96245952Y-105989523D02*
X96912619Y-105989523D01*
X95865000Y-106227618D02*
X96579285Y-106465713D01*
X96579285Y-106465713D02*
X96579285Y-105846666D01*
X96542619Y-101861904D02*
X95542619Y-101861904D01*
X96542619Y-101290476D02*
X95971190Y-101719047D01*
X95542619Y-101290476D02*
X96114047Y-101861904D01*
%TO.C,C1*%
X116389880Y-97846666D02*
X116437500Y-97894285D01*
X116437500Y-97894285D02*
X116485119Y-98037142D01*
X116485119Y-98037142D02*
X116485119Y-98132380D01*
X116485119Y-98132380D02*
X116437500Y-98275237D01*
X116437500Y-98275237D02*
X116342261Y-98370475D01*
X116342261Y-98370475D02*
X116247023Y-98418094D01*
X116247023Y-98418094D02*
X116056547Y-98465713D01*
X116056547Y-98465713D02*
X115913690Y-98465713D01*
X115913690Y-98465713D02*
X115723214Y-98418094D01*
X115723214Y-98418094D02*
X115627976Y-98370475D01*
X115627976Y-98370475D02*
X115532738Y-98275237D01*
X115532738Y-98275237D02*
X115485119Y-98132380D01*
X115485119Y-98132380D02*
X115485119Y-98037142D01*
X115485119Y-98037142D02*
X115532738Y-97894285D01*
X115532738Y-97894285D02*
X115580357Y-97846666D01*
X116485119Y-96894285D02*
X116485119Y-97465713D01*
X116485119Y-97179999D02*
X115485119Y-97179999D01*
X115485119Y-97179999D02*
X115627976Y-97275237D01*
X115627976Y-97275237D02*
X115723214Y-97370475D01*
X115723214Y-97370475D02*
X115770833Y-97465713D01*
%TO.C,D2*%
X96912619Y-82018094D02*
X95912619Y-82018094D01*
X95912619Y-82018094D02*
X95912619Y-81779999D01*
X95912619Y-81779999D02*
X95960238Y-81637142D01*
X95960238Y-81637142D02*
X96055476Y-81541904D01*
X96055476Y-81541904D02*
X96150714Y-81494285D01*
X96150714Y-81494285D02*
X96341190Y-81446666D01*
X96341190Y-81446666D02*
X96484047Y-81446666D01*
X96484047Y-81446666D02*
X96674523Y-81494285D01*
X96674523Y-81494285D02*
X96769761Y-81541904D01*
X96769761Y-81541904D02*
X96865000Y-81637142D01*
X96865000Y-81637142D02*
X96912619Y-81779999D01*
X96912619Y-81779999D02*
X96912619Y-82018094D01*
X96007857Y-81065713D02*
X95960238Y-81018094D01*
X95960238Y-81018094D02*
X95912619Y-80922856D01*
X95912619Y-80922856D02*
X95912619Y-80684761D01*
X95912619Y-80684761D02*
X95960238Y-80589523D01*
X95960238Y-80589523D02*
X96007857Y-80541904D01*
X96007857Y-80541904D02*
X96103095Y-80494285D01*
X96103095Y-80494285D02*
X96198333Y-80494285D01*
X96198333Y-80494285D02*
X96341190Y-80541904D01*
X96341190Y-80541904D02*
X96912619Y-81113332D01*
X96912619Y-81113332D02*
X96912619Y-80494285D01*
X96542619Y-76461904D02*
X95542619Y-76461904D01*
X96542619Y-75890476D02*
X95971190Y-76319047D01*
X95542619Y-75890476D02*
X96114047Y-76461904D01*
%TO.C,U1*%
X131318095Y-71392619D02*
X131318095Y-72202142D01*
X131318095Y-72202142D02*
X131365714Y-72297380D01*
X131365714Y-72297380D02*
X131413333Y-72345000D01*
X131413333Y-72345000D02*
X131508571Y-72392619D01*
X131508571Y-72392619D02*
X131699047Y-72392619D01*
X131699047Y-72392619D02*
X131794285Y-72345000D01*
X131794285Y-72345000D02*
X131841904Y-72297380D01*
X131841904Y-72297380D02*
X131889523Y-72202142D01*
X131889523Y-72202142D02*
X131889523Y-71392619D01*
X132889523Y-72392619D02*
X132318095Y-72392619D01*
X132603809Y-72392619D02*
X132603809Y-71392619D01*
X132603809Y-71392619D02*
X132508571Y-71535476D01*
X132508571Y-71535476D02*
X132413333Y-71630714D01*
X132413333Y-71630714D02*
X132318095Y-71678333D01*
D11*
%TO.C,D1*%
X78740000Y-77540000D02*
X78740000Y-78560000D01*
X80210000Y-78560000D02*
X77270000Y-78560000D01*
X77270000Y-78560000D02*
X77270000Y-84000000D01*
X80210000Y-79340000D02*
X77270000Y-79340000D01*
X80210000Y-79460000D02*
X77270000Y-79460000D01*
X80210000Y-79580000D02*
X77270000Y-79580000D01*
X80210000Y-84000000D02*
X80210000Y-78560000D01*
X77270000Y-84000000D02*
X80210000Y-84000000D01*
X78740000Y-85020000D02*
X78740000Y-84000000D01*
%TO.C,J2*%
X58830000Y-106680000D02*
X58830000Y-76680000D01*
X48330000Y-76680000D02*
X48330000Y-106680000D01*
X48330000Y-106680000D02*
G75*
G03*
X58830000Y-106680000I5250000J0D01*
G01*
X58830000Y-76680000D02*
G75*
G03*
X48330000Y-76680000I-5250000J0D01*
G01*
%TO.C,D3*%
X78740000Y-102940000D02*
X78740000Y-103960000D01*
X80210000Y-103960000D02*
X77270000Y-103960000D01*
X77270000Y-103960000D02*
X77270000Y-109400000D01*
X80210000Y-104740000D02*
X77270000Y-104740000D01*
X80210000Y-104860000D02*
X77270000Y-104860000D01*
X80210000Y-104980000D02*
X77270000Y-104980000D01*
X80210000Y-109400000D02*
X80210000Y-103960000D01*
X77270000Y-109400000D02*
X80210000Y-109400000D01*
X78740000Y-110420000D02*
X78740000Y-109400000D01*
%TO.C,J1*%
X149690000Y-76440000D02*
X149690000Y-106440000D01*
X160190000Y-106440000D02*
X160190000Y-76440000D01*
X160190000Y-76440000D02*
G75*
G03*
X149690000Y-76440000I-5250000J0D01*
G01*
X149690000Y-106440000D02*
G75*
G03*
X160190000Y-106440000I5250000J0D01*
G01*
%TO.C,D4*%
X93980000Y-102940000D02*
X93980000Y-103960000D01*
X95450000Y-103960000D02*
X92510000Y-103960000D01*
X92510000Y-103960000D02*
X92510000Y-109400000D01*
X95450000Y-104740000D02*
X92510000Y-104740000D01*
X95450000Y-104860000D02*
X92510000Y-104860000D01*
X95450000Y-104980000D02*
X92510000Y-104980000D01*
X95450000Y-109400000D02*
X95450000Y-103960000D01*
X92510000Y-109400000D02*
X95450000Y-109400000D01*
X93980000Y-110420000D02*
X93980000Y-109400000D01*
%TO.C,C1*%
X114502500Y-89960000D02*
X114502500Y-91760000D01*
X111902500Y-90120000D02*
X111902500Y-92060000D01*
X115402500Y-90860000D02*
X113602500Y-90860000D01*
X115022500Y-92060000D02*
X108782500Y-92060000D01*
X115022500Y-92060000D02*
X115022500Y-93860000D01*
X108782500Y-92060000D02*
X108782500Y-93860000D01*
X115022500Y-93860000D02*
X114122500Y-94760000D01*
X108782500Y-93860000D02*
X109682500Y-94760000D01*
X114122500Y-94760000D02*
X115022500Y-95660000D01*
X109682500Y-94760000D02*
X108782500Y-95660000D01*
X115022500Y-95660000D02*
X115022500Y-103300000D01*
X108782500Y-95660000D02*
X108782500Y-103300000D01*
X115022500Y-103300000D02*
X108782500Y-103300000D01*
X111902500Y-105240000D02*
X111902500Y-103300000D01*
%TO.C,D2*%
X93980000Y-77540000D02*
X93980000Y-78560000D01*
X95450000Y-78560000D02*
X92510000Y-78560000D01*
X92510000Y-78560000D02*
X92510000Y-84000000D01*
X95450000Y-79340000D02*
X92510000Y-79340000D01*
X95450000Y-79460000D02*
X92510000Y-79460000D01*
X95450000Y-79580000D02*
X92510000Y-79580000D01*
X95450000Y-84000000D02*
X95450000Y-78560000D01*
X92510000Y-84000000D02*
X95450000Y-84000000D01*
X93980000Y-85020000D02*
X93980000Y-84000000D01*
%TO.C,U1*%
X126960000Y-72930000D02*
X126960000Y-77571000D01*
X126960000Y-72930000D02*
X137200000Y-72930000D01*
X126960000Y-74440000D02*
X137200000Y-74440000D01*
X126960000Y-77571000D02*
X137200000Y-77571000D01*
X130230000Y-72930000D02*
X130230000Y-74440000D01*
X133931000Y-72930000D02*
X133931000Y-74440000D01*
X137200000Y-72930000D02*
X137200000Y-77571000D01*
%TD*%
D12*
X167640000Y-121920000D02*
X40640000Y-121920000D01*
X40640000Y-121920000D02*
X40640000Y-66040000D01*
X40640000Y-66040000D02*
X167640000Y-66040000D01*
X167640000Y-66040000D02*
X167640000Y-121920000D01*
D13*
D14*
X156265714Y-119196428D02*
X156765714Y-118482142D01*
X157122857Y-119196428D02*
X157122857Y-117696428D01*
X157122857Y-117696428D02*
X156551428Y-117696428D01*
X156551428Y-117696428D02*
X156408571Y-117767857D01*
X156408571Y-117767857D02*
X156337142Y-117839285D01*
X156337142Y-117839285D02*
X156265714Y-117982142D01*
X156265714Y-117982142D02*
X156265714Y-118196428D01*
X156265714Y-118196428D02*
X156337142Y-118339285D01*
X156337142Y-118339285D02*
X156408571Y-118410714D01*
X156408571Y-118410714D02*
X156551428Y-118482142D01*
X156551428Y-118482142D02*
X157122857Y-118482142D01*
X155622857Y-118410714D02*
X155122857Y-118410714D01*
X154908571Y-119196428D02*
X155622857Y-119196428D01*
X155622857Y-119196428D02*
X155622857Y-117696428D01*
X155622857Y-117696428D02*
X154908571Y-117696428D01*
X153408571Y-119053571D02*
X153479999Y-119125000D01*
X153479999Y-119125000D02*
X153694285Y-119196428D01*
X153694285Y-119196428D02*
X153837142Y-119196428D01*
X153837142Y-119196428D02*
X154051428Y-119125000D01*
X154051428Y-119125000D02*
X154194285Y-118982142D01*
X154194285Y-118982142D02*
X154265714Y-118839285D01*
X154265714Y-118839285D02*
X154337142Y-118553571D01*
X154337142Y-118553571D02*
X154337142Y-118339285D01*
X154337142Y-118339285D02*
X154265714Y-118053571D01*
X154265714Y-118053571D02*
X154194285Y-117910714D01*
X154194285Y-117910714D02*
X154051428Y-117767857D01*
X154051428Y-117767857D02*
X153837142Y-117696428D01*
X153837142Y-117696428D02*
X153694285Y-117696428D01*
X153694285Y-117696428D02*
X153479999Y-117767857D01*
X153479999Y-117767857D02*
X153408571Y-117839285D01*
X152765714Y-119196428D02*
X152765714Y-117696428D01*
X152051428Y-118410714D02*
X151551428Y-118410714D01*
X151337142Y-119196428D02*
X152051428Y-119196428D01*
X152051428Y-119196428D02*
X152051428Y-117696428D01*
X152051428Y-117696428D02*
X151337142Y-117696428D01*
X150908570Y-117696428D02*
X150408570Y-119196428D01*
X150408570Y-119196428D02*
X149908570Y-117696428D01*
X149408571Y-118410714D02*
X148908571Y-118410714D01*
X148694285Y-119196428D02*
X149408571Y-119196428D01*
X149408571Y-119196428D02*
X149408571Y-117696428D01*
X149408571Y-117696428D02*
X148694285Y-117696428D01*
X147194285Y-119196428D02*
X147694285Y-118482142D01*
X148051428Y-119196428D02*
X148051428Y-117696428D01*
X148051428Y-117696428D02*
X147479999Y-117696428D01*
X147479999Y-117696428D02*
X147337142Y-117767857D01*
X147337142Y-117767857D02*
X147265713Y-117839285D01*
X147265713Y-117839285D02*
X147194285Y-117982142D01*
X147194285Y-117982142D02*
X147194285Y-118196428D01*
X147194285Y-118196428D02*
X147265713Y-118339285D01*
X147265713Y-118339285D02*
X147337142Y-118410714D01*
X147337142Y-118410714D02*
X147479999Y-118482142D01*
X147479999Y-118482142D02*
X148051428Y-118482142D01*
D15*
%TO.P,D1,1,K*%
%TO.N,Net-(D1-K)*%
X78740000Y-76200000D03*
D16*
%TO.P,D1,2,A*%
%TO.N,Net-(D1-A)*%
X78740000Y-86360000D03*
%TD*%
D17*
%TO.P,J2,1,Pin_1*%
%TO.N,Net-(D1-A)*%
X53580000Y-106680000D03*
%TO.P,J2,2,Pin_2*%
%TO.N,Net-(D2-A)*%
X53580000Y-76710000D03*
%TD*%
D15*
%TO.P,D3,1,K*%
%TO.N,Net-(D1-A)*%
X78740000Y-101600000D03*
D16*
%TO.P,D3,2,A*%
%TO.N,Net-(D3-A)*%
X78740000Y-111760000D03*
%TD*%
D17*
%TO.P,J1,1,Pin_1*%
%TO.N,Net-(J1-Pin_1)*%
X154940000Y-76440000D03*
%TO.P,J1,2,Pin_2*%
%TO.N,Net-(D3-A)*%
X154940000Y-106410000D03*
%TD*%
D15*
%TO.P,D4,1,K*%
%TO.N,Net-(D2-A)*%
X93980000Y-101600000D03*
D16*
%TO.P,D4,2,A*%
%TO.N,Net-(D3-A)*%
X93980000Y-111760000D03*
%TD*%
D18*
%TO.P,C1,1*%
%TO.N,Net-(D1-K)*%
X111902500Y-88680000D03*
D19*
%TO.P,C1,2*%
%TO.N,Net-(D3-A)*%
X111902500Y-106680000D03*
%TD*%
D15*
%TO.P,D2,1,K*%
%TO.N,Net-(D1-K)*%
X93980000Y-76200000D03*
D16*
%TO.P,D2,2,A*%
%TO.N,Net-(D2-A)*%
X93980000Y-86360000D03*
%TD*%
D20*
%TO.P,U1,1,VI*%
%TO.N,Net-(D1-K)*%
X129540000Y-76200000D03*
D21*
%TO.P,U1,2,GND*%
%TO.N,Net-(D3-A)*%
X132080000Y-76200000D03*
%TO.P,U1,3,VO*%
%TO.N,Net-(J1-Pin_1)*%
X134620000Y-76200000D03*
%TD*%
D22*
%TO.N,Net-(D1-K)*%
X78740000Y-76200000D02*
X93980000Y-76200000D01*
X129540000Y-76200000D02*
X112045000Y-76200000D01*
X112045000Y-76200000D02*
X111902500Y-76342500D01*
X93980000Y-76200000D02*
X111760000Y-76200000D01*
X111760000Y-76200000D02*
X111902500Y-76342500D01*
X111902500Y-76342500D02*
X111902500Y-88680000D01*
%TO.N,Net-(D3-A)*%
X154940000Y-106410000D02*
X154940000Y-111760000D01*
X132080000Y-111760000D02*
X111760000Y-111760000D01*
X132080000Y-76200000D02*
X132080000Y-111760000D01*
X111902500Y-106680000D02*
X111902500Y-111617500D01*
X78740000Y-111760000D02*
X93980000Y-111760000D01*
X111760000Y-111760000D02*
X93980000Y-111760000D01*
X111902500Y-111617500D02*
X111760000Y-111760000D01*
X154940000Y-111760000D02*
X132080000Y-111760000D01*
%TO.N,Net-(D1-A)*%
X53580000Y-106680000D02*
X73660000Y-106680000D01*
X73660000Y-106680000D02*
X78740000Y-101600000D01*
X78740000Y-101600000D02*
X78740000Y-86360000D01*
%TO.N,Net-(D2-A)*%
X93980000Y-91440000D02*
X93980000Y-101600000D01*
X53580000Y-76710000D02*
X70610000Y-76710000D01*
X70610000Y-76710000D02*
X71120000Y-76200000D01*
X93980000Y-86360000D02*
X93980000Y-91440000D01*
X86360000Y-91440000D02*
X93980000Y-91440000D01*
X71120000Y-76200000D02*
X71120000Y-81280000D01*
X86360000Y-81280000D02*
X86360000Y-91440000D01*
X71120000Y-81280000D02*
X86360000Y-81280000D01*
%TO.N,Net-(J1-Pin_1)*%
X154700000Y-76200000D02*
X154940000Y-76440000D01*
X134620000Y-76200000D02*
X154700000Y-76200000D01*
%TD*%
M02*
