%TF.GenerationSoftware,KiCad,Pcbnew,7.0.2*%
%TF.CreationDate,2023-06-26T14:49:25+05:30*%
%TF.ProjectId,Receiver,52656365-6976-4657-922e-6b696361645f,rev?*%
%TF.SameCoordinates,Original*%
%TF.FileFunction,Drillmap*%
%TF.FilePolarity,Positive*%
%FSLAX45Y45*%
G04 Gerber Fmt 4.5, Leading zero omitted, Abs format (unit mm)*
G04 Created by KiCad (PCBNEW 7.0.2) date 2023-06-26 14:49:25*
%MOMM*%
%LPD*%
G01*
G04 APERTURE LIST*
%ADD10C,0.200000*%
%ADD11C,0.110000*%
%ADD12C,0.120000*%
%ADD13C,0.610000*%
G04 APERTURE END LIST*
D10*
D11*
X7819000Y-7565000D02*
X7929000Y-7675000D01*
X7929000Y-7565000D02*
X7819000Y-7675000D01*
X7819000Y-8581000D02*
X7929000Y-8691000D01*
X7929000Y-8581000D02*
X7819000Y-8691000D01*
X7819000Y-10105000D02*
X7929000Y-10215000D01*
X7929000Y-10105000D02*
X7819000Y-10215000D01*
X7819000Y-11121000D02*
X7929000Y-11231000D01*
X7929000Y-11121000D02*
X7819000Y-11231000D01*
X9343000Y-7565000D02*
X9453000Y-7675000D01*
X9453000Y-7565000D02*
X9343000Y-7675000D01*
X9343000Y-8581000D02*
X9453000Y-8691000D01*
X9453000Y-8581000D02*
X9343000Y-8691000D01*
X9343000Y-10105000D02*
X9453000Y-10215000D01*
X9453000Y-10105000D02*
X9343000Y-10215000D01*
X9343000Y-11121000D02*
X9453000Y-11231000D01*
X9453000Y-11121000D02*
X9343000Y-11231000D01*
X12899000Y-7565000D02*
X13009000Y-7675000D01*
X13009000Y-7565000D02*
X12899000Y-7675000D01*
X13153000Y-7565000D02*
X13263000Y-7675000D01*
X13263000Y-7565000D02*
X13153000Y-7675000D01*
X13407000Y-7565000D02*
X13517000Y-7675000D01*
X13517000Y-7565000D02*
X13407000Y-7675000D01*
D12*
X11250250Y-8868000D02*
G75*
G03*
X11250250Y-8868000I-60000J0D01*
G01*
X11250250Y-10668000D02*
G75*
G03*
X11250250Y-10668000I-60000J0D01*
G01*
D13*
X5358000Y-7366000D02*
X5358000Y-7976000D01*
X5053000Y-7671000D02*
X5663000Y-7671000D01*
X5358000Y-10363000D02*
X5358000Y-10973000D01*
X5053000Y-10668000D02*
X5663000Y-10668000D01*
X15494000Y-7339000D02*
X15494000Y-7949000D01*
X15189000Y-7644000D02*
X15799000Y-7644000D01*
X15494000Y-10336000D02*
X15494000Y-10946000D01*
X15189000Y-10641000D02*
X15799000Y-10641000D01*
D10*
X247619Y-312524D02*
X247619Y-112524D01*
X247619Y-112524D02*
X295238Y-112524D01*
X295238Y-112524D02*
X323810Y-122048D01*
X323810Y-122048D02*
X342857Y-141095D01*
X342857Y-141095D02*
X352381Y-160143D01*
X352381Y-160143D02*
X361905Y-198238D01*
X361905Y-198238D02*
X361905Y-226809D01*
X361905Y-226809D02*
X352381Y-264905D01*
X352381Y-264905D02*
X342857Y-283952D01*
X342857Y-283952D02*
X323810Y-303000D01*
X323810Y-303000D02*
X295238Y-312524D01*
X295238Y-312524D02*
X247619Y-312524D01*
X447619Y-312524D02*
X447619Y-179190D01*
X447619Y-217286D02*
X457143Y-198238D01*
X457143Y-198238D02*
X466667Y-188714D01*
X466667Y-188714D02*
X485714Y-179190D01*
X485714Y-179190D02*
X504762Y-179190D01*
X571429Y-312524D02*
X571429Y-179190D01*
X571429Y-112524D02*
X561905Y-122048D01*
X561905Y-122048D02*
X571429Y-131571D01*
X571429Y-131571D02*
X580952Y-122048D01*
X580952Y-122048D02*
X571429Y-112524D01*
X571429Y-112524D02*
X571429Y-131571D01*
X695238Y-312524D02*
X676190Y-303000D01*
X676190Y-303000D02*
X666667Y-283952D01*
X666667Y-283952D02*
X666667Y-112524D01*
X800000Y-312524D02*
X780952Y-303000D01*
X780952Y-303000D02*
X771428Y-283952D01*
X771428Y-283952D02*
X771428Y-112524D01*
X1028571Y-312524D02*
X1028571Y-112524D01*
X1028571Y-112524D02*
X1095238Y-255381D01*
X1095238Y-255381D02*
X1161905Y-112524D01*
X1161905Y-112524D02*
X1161905Y-312524D01*
X1342857Y-312524D02*
X1342857Y-207762D01*
X1342857Y-207762D02*
X1333333Y-188714D01*
X1333333Y-188714D02*
X1314286Y-179190D01*
X1314286Y-179190D02*
X1276190Y-179190D01*
X1276190Y-179190D02*
X1257143Y-188714D01*
X1342857Y-303000D02*
X1323810Y-312524D01*
X1323810Y-312524D02*
X1276190Y-312524D01*
X1276190Y-312524D02*
X1257143Y-303000D01*
X1257143Y-303000D02*
X1247619Y-283952D01*
X1247619Y-283952D02*
X1247619Y-264905D01*
X1247619Y-264905D02*
X1257143Y-245857D01*
X1257143Y-245857D02*
X1276190Y-236333D01*
X1276190Y-236333D02*
X1323810Y-236333D01*
X1323810Y-236333D02*
X1342857Y-226809D01*
X1438095Y-179190D02*
X1438095Y-379190D01*
X1438095Y-188714D02*
X1457143Y-179190D01*
X1457143Y-179190D02*
X1495238Y-179190D01*
X1495238Y-179190D02*
X1514286Y-188714D01*
X1514286Y-188714D02*
X1523809Y-198238D01*
X1523809Y-198238D02*
X1533333Y-217286D01*
X1533333Y-217286D02*
X1533333Y-274429D01*
X1533333Y-274429D02*
X1523809Y-293476D01*
X1523809Y-293476D02*
X1514286Y-303000D01*
X1514286Y-303000D02*
X1495238Y-312524D01*
X1495238Y-312524D02*
X1457143Y-312524D01*
X1457143Y-312524D02*
X1438095Y-303000D01*
X1619048Y-293476D02*
X1628571Y-303000D01*
X1628571Y-303000D02*
X1619048Y-312524D01*
X1619048Y-312524D02*
X1609524Y-303000D01*
X1609524Y-303000D02*
X1619048Y-293476D01*
X1619048Y-293476D02*
X1619048Y-312524D01*
X1619048Y-188714D02*
X1628571Y-198238D01*
X1628571Y-198238D02*
X1619048Y-207762D01*
X1619048Y-207762D02*
X1609524Y-198238D01*
X1609524Y-198238D02*
X1619048Y-188714D01*
X1619048Y-188714D02*
X1619048Y-207762D01*
D11*
X-110000Y-585000D02*
X0Y-695000D01*
X0Y-585000D02*
X-110000Y-695000D01*
D10*
X352381Y-732524D02*
X238095Y-732524D01*
X295238Y-732524D02*
X295238Y-532524D01*
X295238Y-532524D02*
X276190Y-561095D01*
X276190Y-561095D02*
X257143Y-580143D01*
X257143Y-580143D02*
X238095Y-589667D01*
X438095Y-713476D02*
X447619Y-723000D01*
X447619Y-723000D02*
X438095Y-732524D01*
X438095Y-732524D02*
X428571Y-723000D01*
X428571Y-723000D02*
X438095Y-713476D01*
X438095Y-713476D02*
X438095Y-732524D01*
X638095Y-732524D02*
X523809Y-732524D01*
X580952Y-732524D02*
X580952Y-532524D01*
X580952Y-532524D02*
X561905Y-561095D01*
X561905Y-561095D02*
X542857Y-580143D01*
X542857Y-580143D02*
X523809Y-589667D01*
X761905Y-532524D02*
X780952Y-532524D01*
X780952Y-532524D02*
X800000Y-542048D01*
X800000Y-542048D02*
X809524Y-551571D01*
X809524Y-551571D02*
X819048Y-570619D01*
X819048Y-570619D02*
X828571Y-608714D01*
X828571Y-608714D02*
X828571Y-656333D01*
X828571Y-656333D02*
X819048Y-694429D01*
X819048Y-694429D02*
X809524Y-713476D01*
X809524Y-713476D02*
X800000Y-723000D01*
X800000Y-723000D02*
X780952Y-732524D01*
X780952Y-732524D02*
X761905Y-732524D01*
X761905Y-732524D02*
X742857Y-723000D01*
X742857Y-723000D02*
X733333Y-713476D01*
X733333Y-713476D02*
X723809Y-694429D01*
X723809Y-694429D02*
X714286Y-656333D01*
X714286Y-656333D02*
X714286Y-608714D01*
X714286Y-608714D02*
X723809Y-570619D01*
X723809Y-570619D02*
X733333Y-551571D01*
X733333Y-551571D02*
X742857Y-542048D01*
X742857Y-542048D02*
X761905Y-532524D01*
X952381Y-532524D02*
X971429Y-532524D01*
X971429Y-532524D02*
X990476Y-542048D01*
X990476Y-542048D02*
X1000000Y-551571D01*
X1000000Y-551571D02*
X1009524Y-570619D01*
X1009524Y-570619D02*
X1019048Y-608714D01*
X1019048Y-608714D02*
X1019048Y-656333D01*
X1019048Y-656333D02*
X1009524Y-694429D01*
X1009524Y-694429D02*
X1000000Y-713476D01*
X1000000Y-713476D02*
X990476Y-723000D01*
X990476Y-723000D02*
X971429Y-732524D01*
X971429Y-732524D02*
X952381Y-732524D01*
X952381Y-732524D02*
X933333Y-723000D01*
X933333Y-723000D02*
X923809Y-713476D01*
X923809Y-713476D02*
X914286Y-694429D01*
X914286Y-694429D02*
X904762Y-656333D01*
X904762Y-656333D02*
X904762Y-608714D01*
X904762Y-608714D02*
X914286Y-570619D01*
X914286Y-570619D02*
X923809Y-551571D01*
X923809Y-551571D02*
X933333Y-542048D01*
X933333Y-542048D02*
X952381Y-532524D01*
X1104762Y-732524D02*
X1104762Y-599190D01*
X1104762Y-618238D02*
X1114286Y-608714D01*
X1114286Y-608714D02*
X1133333Y-599190D01*
X1133333Y-599190D02*
X1161905Y-599190D01*
X1161905Y-599190D02*
X1180952Y-608714D01*
X1180952Y-608714D02*
X1190476Y-627762D01*
X1190476Y-627762D02*
X1190476Y-732524D01*
X1190476Y-627762D02*
X1200000Y-608714D01*
X1200000Y-608714D02*
X1219048Y-599190D01*
X1219048Y-599190D02*
X1247619Y-599190D01*
X1247619Y-599190D02*
X1266667Y-608714D01*
X1266667Y-608714D02*
X1276191Y-627762D01*
X1276191Y-627762D02*
X1276191Y-732524D01*
X1371429Y-732524D02*
X1371429Y-599190D01*
X1371429Y-618238D02*
X1380952Y-608714D01*
X1380952Y-608714D02*
X1400000Y-599190D01*
X1400000Y-599190D02*
X1428571Y-599190D01*
X1428571Y-599190D02*
X1447619Y-608714D01*
X1447619Y-608714D02*
X1457143Y-627762D01*
X1457143Y-627762D02*
X1457143Y-732524D01*
X1457143Y-627762D02*
X1466667Y-608714D01*
X1466667Y-608714D02*
X1485714Y-599190D01*
X1485714Y-599190D02*
X1514286Y-599190D01*
X1514286Y-599190D02*
X1533333Y-608714D01*
X1533333Y-608714D02*
X1542857Y-627762D01*
X1542857Y-627762D02*
X1542857Y-732524D01*
X1933333Y-523000D02*
X1761905Y-780143D01*
X2190476Y-532524D02*
X2209524Y-532524D01*
X2209524Y-532524D02*
X2228572Y-542048D01*
X2228572Y-542048D02*
X2238095Y-551571D01*
X2238095Y-551571D02*
X2247619Y-570619D01*
X2247619Y-570619D02*
X2257143Y-608714D01*
X2257143Y-608714D02*
X2257143Y-656333D01*
X2257143Y-656333D02*
X2247619Y-694429D01*
X2247619Y-694429D02*
X2238095Y-713476D01*
X2238095Y-713476D02*
X2228572Y-723000D01*
X2228572Y-723000D02*
X2209524Y-732524D01*
X2209524Y-732524D02*
X2190476Y-732524D01*
X2190476Y-732524D02*
X2171429Y-723000D01*
X2171429Y-723000D02*
X2161905Y-713476D01*
X2161905Y-713476D02*
X2152381Y-694429D01*
X2152381Y-694429D02*
X2142857Y-656333D01*
X2142857Y-656333D02*
X2142857Y-608714D01*
X2142857Y-608714D02*
X2152381Y-570619D01*
X2152381Y-570619D02*
X2161905Y-551571D01*
X2161905Y-551571D02*
X2171429Y-542048D01*
X2171429Y-542048D02*
X2190476Y-532524D01*
X2342857Y-713476D02*
X2352381Y-723000D01*
X2352381Y-723000D02*
X2342857Y-732524D01*
X2342857Y-732524D02*
X2333334Y-723000D01*
X2333334Y-723000D02*
X2342857Y-713476D01*
X2342857Y-713476D02*
X2342857Y-732524D01*
X2476191Y-532524D02*
X2495238Y-532524D01*
X2495238Y-532524D02*
X2514286Y-542048D01*
X2514286Y-542048D02*
X2523810Y-551571D01*
X2523810Y-551571D02*
X2533334Y-570619D01*
X2533334Y-570619D02*
X2542857Y-608714D01*
X2542857Y-608714D02*
X2542857Y-656333D01*
X2542857Y-656333D02*
X2533334Y-694429D01*
X2533334Y-694429D02*
X2523810Y-713476D01*
X2523810Y-713476D02*
X2514286Y-723000D01*
X2514286Y-723000D02*
X2495238Y-732524D01*
X2495238Y-732524D02*
X2476191Y-732524D01*
X2476191Y-732524D02*
X2457143Y-723000D01*
X2457143Y-723000D02*
X2447619Y-713476D01*
X2447619Y-713476D02*
X2438095Y-694429D01*
X2438095Y-694429D02*
X2428572Y-656333D01*
X2428572Y-656333D02*
X2428572Y-608714D01*
X2428572Y-608714D02*
X2438095Y-570619D01*
X2438095Y-570619D02*
X2447619Y-551571D01*
X2447619Y-551571D02*
X2457143Y-542048D01*
X2457143Y-542048D02*
X2476191Y-532524D01*
X2714286Y-599190D02*
X2714286Y-732524D01*
X2666667Y-523000D02*
X2619048Y-665857D01*
X2619048Y-665857D02*
X2742857Y-665857D01*
X2800000Y-532524D02*
X2923810Y-532524D01*
X2923810Y-532524D02*
X2857143Y-608714D01*
X2857143Y-608714D02*
X2885714Y-608714D01*
X2885714Y-608714D02*
X2904762Y-618238D01*
X2904762Y-618238D02*
X2914286Y-627762D01*
X2914286Y-627762D02*
X2923810Y-646810D01*
X2923810Y-646810D02*
X2923810Y-694429D01*
X2923810Y-694429D02*
X2914286Y-713476D01*
X2914286Y-713476D02*
X2904762Y-723000D01*
X2904762Y-723000D02*
X2885714Y-732524D01*
X2885714Y-732524D02*
X2828572Y-732524D01*
X2828572Y-732524D02*
X2809524Y-723000D01*
X2809524Y-723000D02*
X2800000Y-713476D01*
X2990476Y-532524D02*
X3114286Y-532524D01*
X3114286Y-532524D02*
X3047619Y-608714D01*
X3047619Y-608714D02*
X3076191Y-608714D01*
X3076191Y-608714D02*
X3095238Y-618238D01*
X3095238Y-618238D02*
X3104762Y-627762D01*
X3104762Y-627762D02*
X3114286Y-646810D01*
X3114286Y-646810D02*
X3114286Y-694429D01*
X3114286Y-694429D02*
X3104762Y-713476D01*
X3104762Y-713476D02*
X3095238Y-723000D01*
X3095238Y-723000D02*
X3076191Y-732524D01*
X3076191Y-732524D02*
X3019048Y-732524D01*
X3019048Y-732524D02*
X3000000Y-723000D01*
X3000000Y-723000D02*
X2990476Y-713476D01*
X3190476Y-532524D02*
X3190476Y-570619D01*
X3266667Y-532524D02*
X3266667Y-570619D01*
X3561905Y-808714D02*
X3552381Y-799190D01*
X3552381Y-799190D02*
X3533334Y-770619D01*
X3533334Y-770619D02*
X3523810Y-751571D01*
X3523810Y-751571D02*
X3514286Y-723000D01*
X3514286Y-723000D02*
X3504762Y-675381D01*
X3504762Y-675381D02*
X3504762Y-637286D01*
X3504762Y-637286D02*
X3514286Y-589667D01*
X3514286Y-589667D02*
X3523810Y-561095D01*
X3523810Y-561095D02*
X3533334Y-542048D01*
X3533334Y-542048D02*
X3552381Y-513476D01*
X3552381Y-513476D02*
X3561905Y-503952D01*
X3742857Y-732524D02*
X3628572Y-732524D01*
X3685714Y-732524D02*
X3685714Y-532524D01*
X3685714Y-532524D02*
X3666667Y-561095D01*
X3666667Y-561095D02*
X3647619Y-580143D01*
X3647619Y-580143D02*
X3628572Y-589667D01*
X3933334Y-732524D02*
X3819048Y-732524D01*
X3876191Y-732524D02*
X3876191Y-532524D01*
X3876191Y-532524D02*
X3857143Y-561095D01*
X3857143Y-561095D02*
X3838095Y-580143D01*
X3838095Y-580143D02*
X3819048Y-589667D01*
X4171429Y-732524D02*
X4171429Y-532524D01*
X4257143Y-732524D02*
X4257143Y-627762D01*
X4257143Y-627762D02*
X4247619Y-608714D01*
X4247619Y-608714D02*
X4228572Y-599190D01*
X4228572Y-599190D02*
X4200000Y-599190D01*
X4200000Y-599190D02*
X4180953Y-608714D01*
X4180953Y-608714D02*
X4171429Y-618238D01*
X4380953Y-732524D02*
X4361905Y-723000D01*
X4361905Y-723000D02*
X4352381Y-713476D01*
X4352381Y-713476D02*
X4342858Y-694429D01*
X4342858Y-694429D02*
X4342858Y-637286D01*
X4342858Y-637286D02*
X4352381Y-618238D01*
X4352381Y-618238D02*
X4361905Y-608714D01*
X4361905Y-608714D02*
X4380953Y-599190D01*
X4380953Y-599190D02*
X4409524Y-599190D01*
X4409524Y-599190D02*
X4428572Y-608714D01*
X4428572Y-608714D02*
X4438096Y-618238D01*
X4438096Y-618238D02*
X4447619Y-637286D01*
X4447619Y-637286D02*
X4447619Y-694429D01*
X4447619Y-694429D02*
X4438096Y-713476D01*
X4438096Y-713476D02*
X4428572Y-723000D01*
X4428572Y-723000D02*
X4409524Y-732524D01*
X4409524Y-732524D02*
X4380953Y-732524D01*
X4561905Y-732524D02*
X4542858Y-723000D01*
X4542858Y-723000D02*
X4533334Y-703952D01*
X4533334Y-703952D02*
X4533334Y-532524D01*
X4714286Y-723000D02*
X4695239Y-732524D01*
X4695239Y-732524D02*
X4657143Y-732524D01*
X4657143Y-732524D02*
X4638096Y-723000D01*
X4638096Y-723000D02*
X4628572Y-703952D01*
X4628572Y-703952D02*
X4628572Y-627762D01*
X4628572Y-627762D02*
X4638096Y-608714D01*
X4638096Y-608714D02*
X4657143Y-599190D01*
X4657143Y-599190D02*
X4695239Y-599190D01*
X4695239Y-599190D02*
X4714286Y-608714D01*
X4714286Y-608714D02*
X4723810Y-627762D01*
X4723810Y-627762D02*
X4723810Y-646810D01*
X4723810Y-646810D02*
X4628572Y-665857D01*
X4800000Y-723000D02*
X4819048Y-732524D01*
X4819048Y-732524D02*
X4857143Y-732524D01*
X4857143Y-732524D02*
X4876191Y-723000D01*
X4876191Y-723000D02*
X4885715Y-703952D01*
X4885715Y-703952D02*
X4885715Y-694429D01*
X4885715Y-694429D02*
X4876191Y-675381D01*
X4876191Y-675381D02*
X4857143Y-665857D01*
X4857143Y-665857D02*
X4828572Y-665857D01*
X4828572Y-665857D02*
X4809524Y-656333D01*
X4809524Y-656333D02*
X4800000Y-637286D01*
X4800000Y-637286D02*
X4800000Y-627762D01*
X4800000Y-627762D02*
X4809524Y-608714D01*
X4809524Y-608714D02*
X4828572Y-599190D01*
X4828572Y-599190D02*
X4857143Y-599190D01*
X4857143Y-599190D02*
X4876191Y-608714D01*
X4952381Y-808714D02*
X4961905Y-799190D01*
X4961905Y-799190D02*
X4980953Y-770619D01*
X4980953Y-770619D02*
X4990477Y-751571D01*
X4990477Y-751571D02*
X5000000Y-723000D01*
X5000000Y-723000D02*
X5009524Y-675381D01*
X5009524Y-675381D02*
X5009524Y-637286D01*
X5009524Y-637286D02*
X5000000Y-589667D01*
X5000000Y-589667D02*
X4990477Y-561095D01*
X4990477Y-561095D02*
X4980953Y-542048D01*
X4980953Y-542048D02*
X4961905Y-513476D01*
X4961905Y-513476D02*
X4952381Y-503952D01*
D12*
X0Y-904000D02*
G75*
G03*
X0Y-904000I-60000J0D01*
G01*
D10*
X352381Y-996524D02*
X238095Y-996524D01*
X295238Y-996524D02*
X295238Y-796524D01*
X295238Y-796524D02*
X276190Y-825095D01*
X276190Y-825095D02*
X257143Y-844143D01*
X257143Y-844143D02*
X238095Y-853667D01*
X438095Y-977476D02*
X447619Y-987000D01*
X447619Y-987000D02*
X438095Y-996524D01*
X438095Y-996524D02*
X428571Y-987000D01*
X428571Y-987000D02*
X438095Y-977476D01*
X438095Y-977476D02*
X438095Y-996524D01*
X523809Y-815571D02*
X533333Y-806048D01*
X533333Y-806048D02*
X552381Y-796524D01*
X552381Y-796524D02*
X600000Y-796524D01*
X600000Y-796524D02*
X619048Y-806048D01*
X619048Y-806048D02*
X628571Y-815571D01*
X628571Y-815571D02*
X638095Y-834619D01*
X638095Y-834619D02*
X638095Y-853667D01*
X638095Y-853667D02*
X628571Y-882238D01*
X628571Y-882238D02*
X514286Y-996524D01*
X514286Y-996524D02*
X638095Y-996524D01*
X761905Y-796524D02*
X780952Y-796524D01*
X780952Y-796524D02*
X800000Y-806048D01*
X800000Y-806048D02*
X809524Y-815571D01*
X809524Y-815571D02*
X819048Y-834619D01*
X819048Y-834619D02*
X828571Y-872714D01*
X828571Y-872714D02*
X828571Y-920333D01*
X828571Y-920333D02*
X819048Y-958428D01*
X819048Y-958428D02*
X809524Y-977476D01*
X809524Y-977476D02*
X800000Y-987000D01*
X800000Y-987000D02*
X780952Y-996524D01*
X780952Y-996524D02*
X761905Y-996524D01*
X761905Y-996524D02*
X742857Y-987000D01*
X742857Y-987000D02*
X733333Y-977476D01*
X733333Y-977476D02*
X723809Y-958428D01*
X723809Y-958428D02*
X714286Y-920333D01*
X714286Y-920333D02*
X714286Y-872714D01*
X714286Y-872714D02*
X723809Y-834619D01*
X723809Y-834619D02*
X733333Y-815571D01*
X733333Y-815571D02*
X742857Y-806048D01*
X742857Y-806048D02*
X761905Y-796524D01*
X952381Y-796524D02*
X971429Y-796524D01*
X971429Y-796524D02*
X990476Y-806048D01*
X990476Y-806048D02*
X1000000Y-815571D01*
X1000000Y-815571D02*
X1009524Y-834619D01*
X1009524Y-834619D02*
X1019048Y-872714D01*
X1019048Y-872714D02*
X1019048Y-920333D01*
X1019048Y-920333D02*
X1009524Y-958428D01*
X1009524Y-958428D02*
X1000000Y-977476D01*
X1000000Y-977476D02*
X990476Y-987000D01*
X990476Y-987000D02*
X971429Y-996524D01*
X971429Y-996524D02*
X952381Y-996524D01*
X952381Y-996524D02*
X933333Y-987000D01*
X933333Y-987000D02*
X923809Y-977476D01*
X923809Y-977476D02*
X914286Y-958428D01*
X914286Y-958428D02*
X904762Y-920333D01*
X904762Y-920333D02*
X904762Y-872714D01*
X904762Y-872714D02*
X914286Y-834619D01*
X914286Y-834619D02*
X923809Y-815571D01*
X923809Y-815571D02*
X933333Y-806048D01*
X933333Y-806048D02*
X952381Y-796524D01*
X1104762Y-996524D02*
X1104762Y-863190D01*
X1104762Y-882238D02*
X1114286Y-872714D01*
X1114286Y-872714D02*
X1133333Y-863190D01*
X1133333Y-863190D02*
X1161905Y-863190D01*
X1161905Y-863190D02*
X1180952Y-872714D01*
X1180952Y-872714D02*
X1190476Y-891762D01*
X1190476Y-891762D02*
X1190476Y-996524D01*
X1190476Y-891762D02*
X1200000Y-872714D01*
X1200000Y-872714D02*
X1219048Y-863190D01*
X1219048Y-863190D02*
X1247619Y-863190D01*
X1247619Y-863190D02*
X1266667Y-872714D01*
X1266667Y-872714D02*
X1276191Y-891762D01*
X1276191Y-891762D02*
X1276191Y-996524D01*
X1371429Y-996524D02*
X1371429Y-863190D01*
X1371429Y-882238D02*
X1380952Y-872714D01*
X1380952Y-872714D02*
X1400000Y-863190D01*
X1400000Y-863190D02*
X1428571Y-863190D01*
X1428571Y-863190D02*
X1447619Y-872714D01*
X1447619Y-872714D02*
X1457143Y-891762D01*
X1457143Y-891762D02*
X1457143Y-996524D01*
X1457143Y-891762D02*
X1466667Y-872714D01*
X1466667Y-872714D02*
X1485714Y-863190D01*
X1485714Y-863190D02*
X1514286Y-863190D01*
X1514286Y-863190D02*
X1533333Y-872714D01*
X1533333Y-872714D02*
X1542857Y-891762D01*
X1542857Y-891762D02*
X1542857Y-996524D01*
X1933333Y-787000D02*
X1761905Y-1044143D01*
X2190476Y-796524D02*
X2209524Y-796524D01*
X2209524Y-796524D02*
X2228572Y-806048D01*
X2228572Y-806048D02*
X2238095Y-815571D01*
X2238095Y-815571D02*
X2247619Y-834619D01*
X2247619Y-834619D02*
X2257143Y-872714D01*
X2257143Y-872714D02*
X2257143Y-920333D01*
X2257143Y-920333D02*
X2247619Y-958428D01*
X2247619Y-958428D02*
X2238095Y-977476D01*
X2238095Y-977476D02*
X2228572Y-987000D01*
X2228572Y-987000D02*
X2209524Y-996524D01*
X2209524Y-996524D02*
X2190476Y-996524D01*
X2190476Y-996524D02*
X2171429Y-987000D01*
X2171429Y-987000D02*
X2161905Y-977476D01*
X2161905Y-977476D02*
X2152381Y-958428D01*
X2152381Y-958428D02*
X2142857Y-920333D01*
X2142857Y-920333D02*
X2142857Y-872714D01*
X2142857Y-872714D02*
X2152381Y-834619D01*
X2152381Y-834619D02*
X2161905Y-815571D01*
X2161905Y-815571D02*
X2171429Y-806048D01*
X2171429Y-806048D02*
X2190476Y-796524D01*
X2342857Y-977476D02*
X2352381Y-987000D01*
X2352381Y-987000D02*
X2342857Y-996524D01*
X2342857Y-996524D02*
X2333334Y-987000D01*
X2333334Y-987000D02*
X2342857Y-977476D01*
X2342857Y-977476D02*
X2342857Y-996524D01*
X2476191Y-796524D02*
X2495238Y-796524D01*
X2495238Y-796524D02*
X2514286Y-806048D01*
X2514286Y-806048D02*
X2523810Y-815571D01*
X2523810Y-815571D02*
X2533334Y-834619D01*
X2533334Y-834619D02*
X2542857Y-872714D01*
X2542857Y-872714D02*
X2542857Y-920333D01*
X2542857Y-920333D02*
X2533334Y-958428D01*
X2533334Y-958428D02*
X2523810Y-977476D01*
X2523810Y-977476D02*
X2514286Y-987000D01*
X2514286Y-987000D02*
X2495238Y-996524D01*
X2495238Y-996524D02*
X2476191Y-996524D01*
X2476191Y-996524D02*
X2457143Y-987000D01*
X2457143Y-987000D02*
X2447619Y-977476D01*
X2447619Y-977476D02*
X2438095Y-958428D01*
X2438095Y-958428D02*
X2428572Y-920333D01*
X2428572Y-920333D02*
X2428572Y-872714D01*
X2428572Y-872714D02*
X2438095Y-834619D01*
X2438095Y-834619D02*
X2447619Y-815571D01*
X2447619Y-815571D02*
X2457143Y-806048D01*
X2457143Y-806048D02*
X2476191Y-796524D01*
X2714286Y-863190D02*
X2714286Y-996524D01*
X2666667Y-787000D02*
X2619048Y-929857D01*
X2619048Y-929857D02*
X2742857Y-929857D01*
X2800000Y-796524D02*
X2933333Y-796524D01*
X2933333Y-796524D02*
X2847619Y-996524D01*
X3000000Y-815571D02*
X3009524Y-806048D01*
X3009524Y-806048D02*
X3028572Y-796524D01*
X3028572Y-796524D02*
X3076191Y-796524D01*
X3076191Y-796524D02*
X3095238Y-806048D01*
X3095238Y-806048D02*
X3104762Y-815571D01*
X3104762Y-815571D02*
X3114286Y-834619D01*
X3114286Y-834619D02*
X3114286Y-853667D01*
X3114286Y-853667D02*
X3104762Y-882238D01*
X3104762Y-882238D02*
X2990476Y-996524D01*
X2990476Y-996524D02*
X3114286Y-996524D01*
X3190476Y-796524D02*
X3190476Y-834619D01*
X3266667Y-796524D02*
X3266667Y-834619D01*
X3561905Y-1072714D02*
X3552381Y-1063190D01*
X3552381Y-1063190D02*
X3533334Y-1034619D01*
X3533334Y-1034619D02*
X3523810Y-1015571D01*
X3523810Y-1015571D02*
X3514286Y-987000D01*
X3514286Y-987000D02*
X3504762Y-939381D01*
X3504762Y-939381D02*
X3504762Y-901286D01*
X3504762Y-901286D02*
X3514286Y-853667D01*
X3514286Y-853667D02*
X3523810Y-825095D01*
X3523810Y-825095D02*
X3533334Y-806048D01*
X3533334Y-806048D02*
X3552381Y-777476D01*
X3552381Y-777476D02*
X3561905Y-767952D01*
X3628572Y-815571D02*
X3638095Y-806048D01*
X3638095Y-806048D02*
X3657143Y-796524D01*
X3657143Y-796524D02*
X3704762Y-796524D01*
X3704762Y-796524D02*
X3723810Y-806048D01*
X3723810Y-806048D02*
X3733334Y-815571D01*
X3733334Y-815571D02*
X3742857Y-834619D01*
X3742857Y-834619D02*
X3742857Y-853667D01*
X3742857Y-853667D02*
X3733334Y-882238D01*
X3733334Y-882238D02*
X3619048Y-996524D01*
X3619048Y-996524D02*
X3742857Y-996524D01*
X3980953Y-996524D02*
X3980953Y-796524D01*
X4066667Y-996524D02*
X4066667Y-891762D01*
X4066667Y-891762D02*
X4057143Y-872714D01*
X4057143Y-872714D02*
X4038096Y-863190D01*
X4038096Y-863190D02*
X4009524Y-863190D01*
X4009524Y-863190D02*
X3990476Y-872714D01*
X3990476Y-872714D02*
X3980953Y-882238D01*
X4190476Y-996524D02*
X4171429Y-987000D01*
X4171429Y-987000D02*
X4161905Y-977476D01*
X4161905Y-977476D02*
X4152381Y-958428D01*
X4152381Y-958428D02*
X4152381Y-901286D01*
X4152381Y-901286D02*
X4161905Y-882238D01*
X4161905Y-882238D02*
X4171429Y-872714D01*
X4171429Y-872714D02*
X4190476Y-863190D01*
X4190476Y-863190D02*
X4219048Y-863190D01*
X4219048Y-863190D02*
X4238096Y-872714D01*
X4238096Y-872714D02*
X4247619Y-882238D01*
X4247619Y-882238D02*
X4257143Y-901286D01*
X4257143Y-901286D02*
X4257143Y-958428D01*
X4257143Y-958428D02*
X4247619Y-977476D01*
X4247619Y-977476D02*
X4238096Y-987000D01*
X4238096Y-987000D02*
X4219048Y-996524D01*
X4219048Y-996524D02*
X4190476Y-996524D01*
X4371429Y-996524D02*
X4352381Y-987000D01*
X4352381Y-987000D02*
X4342858Y-967952D01*
X4342858Y-967952D02*
X4342858Y-796524D01*
X4523810Y-987000D02*
X4504762Y-996524D01*
X4504762Y-996524D02*
X4466667Y-996524D01*
X4466667Y-996524D02*
X4447619Y-987000D01*
X4447619Y-987000D02*
X4438096Y-967952D01*
X4438096Y-967952D02*
X4438096Y-891762D01*
X4438096Y-891762D02*
X4447619Y-872714D01*
X4447619Y-872714D02*
X4466667Y-863190D01*
X4466667Y-863190D02*
X4504762Y-863190D01*
X4504762Y-863190D02*
X4523810Y-872714D01*
X4523810Y-872714D02*
X4533334Y-891762D01*
X4533334Y-891762D02*
X4533334Y-910809D01*
X4533334Y-910809D02*
X4438096Y-929857D01*
X4609524Y-987000D02*
X4628572Y-996524D01*
X4628572Y-996524D02*
X4666667Y-996524D01*
X4666667Y-996524D02*
X4685715Y-987000D01*
X4685715Y-987000D02*
X4695239Y-967952D01*
X4695239Y-967952D02*
X4695239Y-958428D01*
X4695239Y-958428D02*
X4685715Y-939381D01*
X4685715Y-939381D02*
X4666667Y-929857D01*
X4666667Y-929857D02*
X4638096Y-929857D01*
X4638096Y-929857D02*
X4619048Y-920333D01*
X4619048Y-920333D02*
X4609524Y-901286D01*
X4609524Y-901286D02*
X4609524Y-891762D01*
X4609524Y-891762D02*
X4619048Y-872714D01*
X4619048Y-872714D02*
X4638096Y-863190D01*
X4638096Y-863190D02*
X4666667Y-863190D01*
X4666667Y-863190D02*
X4685715Y-872714D01*
X4761905Y-1072714D02*
X4771429Y-1063190D01*
X4771429Y-1063190D02*
X4790477Y-1034619D01*
X4790477Y-1034619D02*
X4800000Y-1015571D01*
X4800000Y-1015571D02*
X4809524Y-987000D01*
X4809524Y-987000D02*
X4819048Y-939381D01*
X4819048Y-939381D02*
X4819048Y-901286D01*
X4819048Y-901286D02*
X4809524Y-853667D01*
X4809524Y-853667D02*
X4800000Y-825095D01*
X4800000Y-825095D02*
X4790477Y-806048D01*
X4790477Y-806048D02*
X4771429Y-777476D01*
X4771429Y-777476D02*
X4761905Y-767952D01*
X-100000Y-1068000D02*
X-100000Y-1268000D01*
X-200000Y-1168000D02*
X0Y-1168000D01*
X333333Y-1060524D02*
X295238Y-1060524D01*
X295238Y-1060524D02*
X276190Y-1070048D01*
X276190Y-1070048D02*
X266667Y-1079571D01*
X266667Y-1079571D02*
X247619Y-1108143D01*
X247619Y-1108143D02*
X238095Y-1146238D01*
X238095Y-1146238D02*
X238095Y-1222429D01*
X238095Y-1222429D02*
X247619Y-1241476D01*
X247619Y-1241476D02*
X257143Y-1251000D01*
X257143Y-1251000D02*
X276190Y-1260524D01*
X276190Y-1260524D02*
X314286Y-1260524D01*
X314286Y-1260524D02*
X333333Y-1251000D01*
X333333Y-1251000D02*
X342857Y-1241476D01*
X342857Y-1241476D02*
X352381Y-1222429D01*
X352381Y-1222429D02*
X352381Y-1174810D01*
X352381Y-1174810D02*
X342857Y-1155762D01*
X342857Y-1155762D02*
X333333Y-1146238D01*
X333333Y-1146238D02*
X314286Y-1136714D01*
X314286Y-1136714D02*
X276190Y-1136714D01*
X276190Y-1136714D02*
X257143Y-1146238D01*
X257143Y-1146238D02*
X247619Y-1155762D01*
X247619Y-1155762D02*
X238095Y-1174810D01*
X438095Y-1241476D02*
X447619Y-1251000D01*
X447619Y-1251000D02*
X438095Y-1260524D01*
X438095Y-1260524D02*
X428571Y-1251000D01*
X428571Y-1251000D02*
X438095Y-1241476D01*
X438095Y-1241476D02*
X438095Y-1260524D01*
X638095Y-1260524D02*
X523809Y-1260524D01*
X580952Y-1260524D02*
X580952Y-1060524D01*
X580952Y-1060524D02*
X561905Y-1089095D01*
X561905Y-1089095D02*
X542857Y-1108143D01*
X542857Y-1108143D02*
X523809Y-1117667D01*
X761905Y-1060524D02*
X780952Y-1060524D01*
X780952Y-1060524D02*
X800000Y-1070048D01*
X800000Y-1070048D02*
X809524Y-1079571D01*
X809524Y-1079571D02*
X819048Y-1098619D01*
X819048Y-1098619D02*
X828571Y-1136714D01*
X828571Y-1136714D02*
X828571Y-1184333D01*
X828571Y-1184333D02*
X819048Y-1222429D01*
X819048Y-1222429D02*
X809524Y-1241476D01*
X809524Y-1241476D02*
X800000Y-1251000D01*
X800000Y-1251000D02*
X780952Y-1260524D01*
X780952Y-1260524D02*
X761905Y-1260524D01*
X761905Y-1260524D02*
X742857Y-1251000D01*
X742857Y-1251000D02*
X733333Y-1241476D01*
X733333Y-1241476D02*
X723809Y-1222429D01*
X723809Y-1222429D02*
X714286Y-1184333D01*
X714286Y-1184333D02*
X714286Y-1136714D01*
X714286Y-1136714D02*
X723809Y-1098619D01*
X723809Y-1098619D02*
X733333Y-1079571D01*
X733333Y-1079571D02*
X742857Y-1070048D01*
X742857Y-1070048D02*
X761905Y-1060524D01*
X952381Y-1060524D02*
X971429Y-1060524D01*
X971429Y-1060524D02*
X990476Y-1070048D01*
X990476Y-1070048D02*
X1000000Y-1079571D01*
X1000000Y-1079571D02*
X1009524Y-1098619D01*
X1009524Y-1098619D02*
X1019048Y-1136714D01*
X1019048Y-1136714D02*
X1019048Y-1184333D01*
X1019048Y-1184333D02*
X1009524Y-1222429D01*
X1009524Y-1222429D02*
X1000000Y-1241476D01*
X1000000Y-1241476D02*
X990476Y-1251000D01*
X990476Y-1251000D02*
X971429Y-1260524D01*
X971429Y-1260524D02*
X952381Y-1260524D01*
X952381Y-1260524D02*
X933333Y-1251000D01*
X933333Y-1251000D02*
X923809Y-1241476D01*
X923809Y-1241476D02*
X914286Y-1222429D01*
X914286Y-1222429D02*
X904762Y-1184333D01*
X904762Y-1184333D02*
X904762Y-1136714D01*
X904762Y-1136714D02*
X914286Y-1098619D01*
X914286Y-1098619D02*
X923809Y-1079571D01*
X923809Y-1079571D02*
X933333Y-1070048D01*
X933333Y-1070048D02*
X952381Y-1060524D01*
X1104762Y-1260524D02*
X1104762Y-1127190D01*
X1104762Y-1146238D02*
X1114286Y-1136714D01*
X1114286Y-1136714D02*
X1133333Y-1127190D01*
X1133333Y-1127190D02*
X1161905Y-1127190D01*
X1161905Y-1127190D02*
X1180952Y-1136714D01*
X1180952Y-1136714D02*
X1190476Y-1155762D01*
X1190476Y-1155762D02*
X1190476Y-1260524D01*
X1190476Y-1155762D02*
X1200000Y-1136714D01*
X1200000Y-1136714D02*
X1219048Y-1127190D01*
X1219048Y-1127190D02*
X1247619Y-1127190D01*
X1247619Y-1127190D02*
X1266667Y-1136714D01*
X1266667Y-1136714D02*
X1276191Y-1155762D01*
X1276191Y-1155762D02*
X1276191Y-1260524D01*
X1371429Y-1260524D02*
X1371429Y-1127190D01*
X1371429Y-1146238D02*
X1380952Y-1136714D01*
X1380952Y-1136714D02*
X1400000Y-1127190D01*
X1400000Y-1127190D02*
X1428571Y-1127190D01*
X1428571Y-1127190D02*
X1447619Y-1136714D01*
X1447619Y-1136714D02*
X1457143Y-1155762D01*
X1457143Y-1155762D02*
X1457143Y-1260524D01*
X1457143Y-1155762D02*
X1466667Y-1136714D01*
X1466667Y-1136714D02*
X1485714Y-1127190D01*
X1485714Y-1127190D02*
X1514286Y-1127190D01*
X1514286Y-1127190D02*
X1533333Y-1136714D01*
X1533333Y-1136714D02*
X1542857Y-1155762D01*
X1542857Y-1155762D02*
X1542857Y-1260524D01*
X1933333Y-1051000D02*
X1761905Y-1308143D01*
X2190476Y-1060524D02*
X2209524Y-1060524D01*
X2209524Y-1060524D02*
X2228572Y-1070048D01*
X2228572Y-1070048D02*
X2238095Y-1079571D01*
X2238095Y-1079571D02*
X2247619Y-1098619D01*
X2247619Y-1098619D02*
X2257143Y-1136714D01*
X2257143Y-1136714D02*
X2257143Y-1184333D01*
X2257143Y-1184333D02*
X2247619Y-1222429D01*
X2247619Y-1222429D02*
X2238095Y-1241476D01*
X2238095Y-1241476D02*
X2228572Y-1251000D01*
X2228572Y-1251000D02*
X2209524Y-1260524D01*
X2209524Y-1260524D02*
X2190476Y-1260524D01*
X2190476Y-1260524D02*
X2171429Y-1251000D01*
X2171429Y-1251000D02*
X2161905Y-1241476D01*
X2161905Y-1241476D02*
X2152381Y-1222429D01*
X2152381Y-1222429D02*
X2142857Y-1184333D01*
X2142857Y-1184333D02*
X2142857Y-1136714D01*
X2142857Y-1136714D02*
X2152381Y-1098619D01*
X2152381Y-1098619D02*
X2161905Y-1079571D01*
X2161905Y-1079571D02*
X2171429Y-1070048D01*
X2171429Y-1070048D02*
X2190476Y-1060524D01*
X2342857Y-1241476D02*
X2352381Y-1251000D01*
X2352381Y-1251000D02*
X2342857Y-1260524D01*
X2342857Y-1260524D02*
X2333334Y-1251000D01*
X2333334Y-1251000D02*
X2342857Y-1241476D01*
X2342857Y-1241476D02*
X2342857Y-1260524D01*
X2428572Y-1079571D02*
X2438095Y-1070048D01*
X2438095Y-1070048D02*
X2457143Y-1060524D01*
X2457143Y-1060524D02*
X2504762Y-1060524D01*
X2504762Y-1060524D02*
X2523810Y-1070048D01*
X2523810Y-1070048D02*
X2533334Y-1079571D01*
X2533334Y-1079571D02*
X2542857Y-1098619D01*
X2542857Y-1098619D02*
X2542857Y-1117667D01*
X2542857Y-1117667D02*
X2533334Y-1146238D01*
X2533334Y-1146238D02*
X2419048Y-1260524D01*
X2419048Y-1260524D02*
X2542857Y-1260524D01*
X2714286Y-1127190D02*
X2714286Y-1260524D01*
X2666667Y-1051000D02*
X2619048Y-1193857D01*
X2619048Y-1193857D02*
X2742857Y-1193857D01*
X2857143Y-1060524D02*
X2876191Y-1060524D01*
X2876191Y-1060524D02*
X2895238Y-1070048D01*
X2895238Y-1070048D02*
X2904762Y-1079571D01*
X2904762Y-1079571D02*
X2914286Y-1098619D01*
X2914286Y-1098619D02*
X2923810Y-1136714D01*
X2923810Y-1136714D02*
X2923810Y-1184333D01*
X2923810Y-1184333D02*
X2914286Y-1222429D01*
X2914286Y-1222429D02*
X2904762Y-1241476D01*
X2904762Y-1241476D02*
X2895238Y-1251000D01*
X2895238Y-1251000D02*
X2876191Y-1260524D01*
X2876191Y-1260524D02*
X2857143Y-1260524D01*
X2857143Y-1260524D02*
X2838095Y-1251000D01*
X2838095Y-1251000D02*
X2828572Y-1241476D01*
X2828572Y-1241476D02*
X2819048Y-1222429D01*
X2819048Y-1222429D02*
X2809524Y-1184333D01*
X2809524Y-1184333D02*
X2809524Y-1136714D01*
X2809524Y-1136714D02*
X2819048Y-1098619D01*
X2819048Y-1098619D02*
X2828572Y-1079571D01*
X2828572Y-1079571D02*
X2838095Y-1070048D01*
X2838095Y-1070048D02*
X2857143Y-1060524D01*
X3000000Y-1079571D02*
X3009524Y-1070048D01*
X3009524Y-1070048D02*
X3028572Y-1060524D01*
X3028572Y-1060524D02*
X3076191Y-1060524D01*
X3076191Y-1060524D02*
X3095238Y-1070048D01*
X3095238Y-1070048D02*
X3104762Y-1079571D01*
X3104762Y-1079571D02*
X3114286Y-1098619D01*
X3114286Y-1098619D02*
X3114286Y-1117667D01*
X3114286Y-1117667D02*
X3104762Y-1146238D01*
X3104762Y-1146238D02*
X2990476Y-1260524D01*
X2990476Y-1260524D02*
X3114286Y-1260524D01*
X3190476Y-1060524D02*
X3190476Y-1098619D01*
X3266667Y-1060524D02*
X3266667Y-1098619D01*
X3561905Y-1336714D02*
X3552381Y-1327190D01*
X3552381Y-1327190D02*
X3533334Y-1298619D01*
X3533334Y-1298619D02*
X3523810Y-1279571D01*
X3523810Y-1279571D02*
X3514286Y-1251000D01*
X3514286Y-1251000D02*
X3504762Y-1203381D01*
X3504762Y-1203381D02*
X3504762Y-1165286D01*
X3504762Y-1165286D02*
X3514286Y-1117667D01*
X3514286Y-1117667D02*
X3523810Y-1089095D01*
X3523810Y-1089095D02*
X3533334Y-1070048D01*
X3533334Y-1070048D02*
X3552381Y-1041476D01*
X3552381Y-1041476D02*
X3561905Y-1031952D01*
X3723810Y-1127190D02*
X3723810Y-1260524D01*
X3676191Y-1051000D02*
X3628572Y-1193857D01*
X3628572Y-1193857D02*
X3752381Y-1193857D01*
X3980953Y-1260524D02*
X3980953Y-1060524D01*
X4066667Y-1260524D02*
X4066667Y-1155762D01*
X4066667Y-1155762D02*
X4057143Y-1136714D01*
X4057143Y-1136714D02*
X4038096Y-1127190D01*
X4038096Y-1127190D02*
X4009524Y-1127190D01*
X4009524Y-1127190D02*
X3990476Y-1136714D01*
X3990476Y-1136714D02*
X3980953Y-1146238D01*
X4190476Y-1260524D02*
X4171429Y-1251000D01*
X4171429Y-1251000D02*
X4161905Y-1241476D01*
X4161905Y-1241476D02*
X4152381Y-1222429D01*
X4152381Y-1222429D02*
X4152381Y-1165286D01*
X4152381Y-1165286D02*
X4161905Y-1146238D01*
X4161905Y-1146238D02*
X4171429Y-1136714D01*
X4171429Y-1136714D02*
X4190476Y-1127190D01*
X4190476Y-1127190D02*
X4219048Y-1127190D01*
X4219048Y-1127190D02*
X4238096Y-1136714D01*
X4238096Y-1136714D02*
X4247619Y-1146238D01*
X4247619Y-1146238D02*
X4257143Y-1165286D01*
X4257143Y-1165286D02*
X4257143Y-1222429D01*
X4257143Y-1222429D02*
X4247619Y-1241476D01*
X4247619Y-1241476D02*
X4238096Y-1251000D01*
X4238096Y-1251000D02*
X4219048Y-1260524D01*
X4219048Y-1260524D02*
X4190476Y-1260524D01*
X4371429Y-1260524D02*
X4352381Y-1251000D01*
X4352381Y-1251000D02*
X4342858Y-1231952D01*
X4342858Y-1231952D02*
X4342858Y-1060524D01*
X4523810Y-1251000D02*
X4504762Y-1260524D01*
X4504762Y-1260524D02*
X4466667Y-1260524D01*
X4466667Y-1260524D02*
X4447619Y-1251000D01*
X4447619Y-1251000D02*
X4438096Y-1231952D01*
X4438096Y-1231952D02*
X4438096Y-1155762D01*
X4438096Y-1155762D02*
X4447619Y-1136714D01*
X4447619Y-1136714D02*
X4466667Y-1127190D01*
X4466667Y-1127190D02*
X4504762Y-1127190D01*
X4504762Y-1127190D02*
X4523810Y-1136714D01*
X4523810Y-1136714D02*
X4533334Y-1155762D01*
X4533334Y-1155762D02*
X4533334Y-1174810D01*
X4533334Y-1174810D02*
X4438096Y-1193857D01*
X4609524Y-1251000D02*
X4628572Y-1260524D01*
X4628572Y-1260524D02*
X4666667Y-1260524D01*
X4666667Y-1260524D02*
X4685715Y-1251000D01*
X4685715Y-1251000D02*
X4695239Y-1231952D01*
X4695239Y-1231952D02*
X4695239Y-1222429D01*
X4695239Y-1222429D02*
X4685715Y-1203381D01*
X4685715Y-1203381D02*
X4666667Y-1193857D01*
X4666667Y-1193857D02*
X4638096Y-1193857D01*
X4638096Y-1193857D02*
X4619048Y-1184333D01*
X4619048Y-1184333D02*
X4609524Y-1165286D01*
X4609524Y-1165286D02*
X4609524Y-1155762D01*
X4609524Y-1155762D02*
X4619048Y-1136714D01*
X4619048Y-1136714D02*
X4638096Y-1127190D01*
X4638096Y-1127190D02*
X4666667Y-1127190D01*
X4666667Y-1127190D02*
X4685715Y-1136714D01*
X4761905Y-1336714D02*
X4771429Y-1327190D01*
X4771429Y-1327190D02*
X4790477Y-1298619D01*
X4790477Y-1298619D02*
X4800000Y-1279571D01*
X4800000Y-1279571D02*
X4809524Y-1251000D01*
X4809524Y-1251000D02*
X4819048Y-1203381D01*
X4819048Y-1203381D02*
X4819048Y-1165286D01*
X4819048Y-1165286D02*
X4809524Y-1117667D01*
X4809524Y-1117667D02*
X4800000Y-1089095D01*
X4800000Y-1089095D02*
X4790477Y-1070048D01*
X4790477Y-1070048D02*
X4771429Y-1041476D01*
X4771429Y-1041476D02*
X4761905Y-1031952D01*
M02*
