%TF.GenerationSoftware,KiCad,Pcbnew,7.0.2*%
%TF.CreationDate,2023-06-04T14:04:22+05:30*%
%TF.ProjectId,Transmitter,5472616e-736d-4697-9474-65722e6b6963,rev?*%
%TF.SameCoordinates,Original*%
%TF.FileFunction,Copper,L2,Bot*%
%TF.FilePolarity,Positive*%
%FSLAX46Y46*%
G04 Gerber Fmt 4.6, Leading zero omitted, Abs format (unit mm)*
G04 Created by KiCad (PCBNEW 7.0.2) date 2023-06-04 14:04:22*
%MOMM*%
%LPD*%
G01*
G04 APERTURE LIST*
%ADD10C,0.500000*%
%TA.AperFunction,NonConductor*%
%ADD11C,0.500000*%
%TD*%
%TA.AperFunction,ComponentPad*%
%ADD12R,1.905000X2.000000*%
%TD*%
%TA.AperFunction,ComponentPad*%
%ADD13O,1.905000X2.000000*%
%TD*%
%TA.AperFunction,ComponentPad*%
%ADD14R,2.200000X2.200000*%
%TD*%
%TA.AperFunction,ComponentPad*%
%ADD15O,2.200000X2.200000*%
%TD*%
%TA.AperFunction,ComponentPad*%
%ADD16C,1.600000*%
%TD*%
%TA.AperFunction,ComponentPad*%
%ADD17O,1.600000X1.600000*%
%TD*%
%TA.AperFunction,ComponentPad*%
%ADD18C,10.160000*%
%TD*%
%TA.AperFunction,ComponentPad*%
%ADD19R,2.400000X2.400000*%
%TD*%
%TA.AperFunction,ComponentPad*%
%ADD20O,2.400000X2.400000*%
%TD*%
%TA.AperFunction,Conductor*%
%ADD21C,2.000000*%
%TD*%
G04 APERTURE END LIST*
D10*
D11*
X200374285Y-149032857D02*
X198660000Y-149032857D01*
X199517142Y-152032857D02*
X199517142Y-149032857D01*
X195945714Y-152032857D02*
X196945714Y-150604285D01*
X197660000Y-152032857D02*
X197660000Y-149032857D01*
X197660000Y-149032857D02*
X196517143Y-149032857D01*
X196517143Y-149032857D02*
X196231428Y-149175714D01*
X196231428Y-149175714D02*
X196088571Y-149318571D01*
X196088571Y-149318571D02*
X195945714Y-149604285D01*
X195945714Y-149604285D02*
X195945714Y-150032857D01*
X195945714Y-150032857D02*
X196088571Y-150318571D01*
X196088571Y-150318571D02*
X196231428Y-150461428D01*
X196231428Y-150461428D02*
X196517143Y-150604285D01*
X196517143Y-150604285D02*
X197660000Y-150604285D01*
X194802857Y-151175714D02*
X193374286Y-151175714D01*
X195088571Y-152032857D02*
X194088571Y-149032857D01*
X194088571Y-149032857D02*
X193088571Y-152032857D01*
X192088571Y-152032857D02*
X192088571Y-149032857D01*
X192088571Y-149032857D02*
X190374285Y-152032857D01*
X190374285Y-152032857D02*
X190374285Y-149032857D01*
X189088571Y-151890000D02*
X188660000Y-152032857D01*
X188660000Y-152032857D02*
X187945714Y-152032857D01*
X187945714Y-152032857D02*
X187660000Y-151890000D01*
X187660000Y-151890000D02*
X187517142Y-151747142D01*
X187517142Y-151747142D02*
X187374285Y-151461428D01*
X187374285Y-151461428D02*
X187374285Y-151175714D01*
X187374285Y-151175714D02*
X187517142Y-150890000D01*
X187517142Y-150890000D02*
X187660000Y-150747142D01*
X187660000Y-150747142D02*
X187945714Y-150604285D01*
X187945714Y-150604285D02*
X188517142Y-150461428D01*
X188517142Y-150461428D02*
X188802857Y-150318571D01*
X188802857Y-150318571D02*
X188945714Y-150175714D01*
X188945714Y-150175714D02*
X189088571Y-149890000D01*
X189088571Y-149890000D02*
X189088571Y-149604285D01*
X189088571Y-149604285D02*
X188945714Y-149318571D01*
X188945714Y-149318571D02*
X188802857Y-149175714D01*
X188802857Y-149175714D02*
X188517142Y-149032857D01*
X188517142Y-149032857D02*
X187802857Y-149032857D01*
X187802857Y-149032857D02*
X187374285Y-149175714D01*
X186088571Y-152032857D02*
X186088571Y-149032857D01*
X186088571Y-149032857D02*
X185088571Y-151175714D01*
X185088571Y-151175714D02*
X184088571Y-149032857D01*
X184088571Y-149032857D02*
X184088571Y-152032857D01*
X182660000Y-152032857D02*
X182660000Y-149032857D01*
X181660000Y-149032857D02*
X179945715Y-149032857D01*
X180802857Y-152032857D02*
X180802857Y-149032857D01*
X179374286Y-149032857D02*
X177660001Y-149032857D01*
X178517143Y-152032857D02*
X178517143Y-149032857D01*
X176660001Y-150461428D02*
X175660001Y-150461428D01*
X175231429Y-152032857D02*
X176660001Y-152032857D01*
X176660001Y-152032857D02*
X176660001Y-149032857D01*
X176660001Y-149032857D02*
X175231429Y-149032857D01*
X172231429Y-152032857D02*
X173231429Y-150604285D01*
X173945715Y-152032857D02*
X173945715Y-149032857D01*
X173945715Y-149032857D02*
X172802858Y-149032857D01*
X172802858Y-149032857D02*
X172517143Y-149175714D01*
X172517143Y-149175714D02*
X172374286Y-149318571D01*
X172374286Y-149318571D02*
X172231429Y-149604285D01*
X172231429Y-149604285D02*
X172231429Y-150032857D01*
X172231429Y-150032857D02*
X172374286Y-150318571D01*
X172374286Y-150318571D02*
X172517143Y-150461428D01*
X172517143Y-150461428D02*
X172802858Y-150604285D01*
X172802858Y-150604285D02*
X173945715Y-150604285D01*
D12*
%TO.P,U1,1,VI*%
%TO.N,Net-(D1-K)*%
X116840000Y-101600000D03*
D13*
%TO.P,U1,2,GND*%
%TO.N,GND*%
X119380000Y-101600000D03*
%TO.P,U1,3,VO*%
%TO.N,Net-(J1-Pin_3)*%
X121920000Y-101600000D03*
%TD*%
D14*
%TO.P,D3,1,K*%
%TO.N,Net-(D1-A)*%
X58420000Y-132080000D03*
D15*
%TO.P,D3,2,A*%
%TO.N,GND*%
X58420000Y-142240000D03*
%TD*%
D14*
%TO.P,D4,1,K*%
%TO.N,Net-(D2-A)*%
X78740000Y-124460000D03*
D15*
%TO.P,D4,2,A*%
%TO.N,GND*%
X78740000Y-134620000D03*
%TD*%
D16*
%TO.P,R2,1*%
%TO.N,GND*%
X175260000Y-101600000D03*
D17*
%TO.P,R2,2*%
%TO.N,Net-(J1-Pin_1)*%
X190500000Y-101600000D03*
%TD*%
D18*
%TO.P,J1,1,Pin_1*%
%TO.N,Net-(J1-Pin_1)*%
X220980000Y-114300000D03*
%TO.P,J1,2,Pin_2*%
%TO.N,Net-(J1-Pin_2)*%
X220980000Y-129290000D03*
%TO.P,J1,3,Pin_3*%
%TO.N,Net-(J1-Pin_3)*%
X220980000Y-144270000D03*
%TD*%
D16*
%TO.P,R1,1*%
%TO.N,Net-(J1-Pin_3)*%
X132080000Y-101600000D03*
D17*
%TO.P,R1,2*%
%TO.N,Net-(Q1-S)*%
X147320000Y-101600000D03*
%TD*%
D14*
%TO.P,D2,1,K*%
%TO.N,Net-(D1-K)*%
X78740000Y-93980000D03*
D15*
%TO.P,D2,2,A*%
%TO.N,Net-(D2-A)*%
X78740000Y-104140000D03*
%TD*%
D19*
%TO.P,C1,1*%
%TO.N,Net-(D1-K)*%
X96502500Y-101800000D03*
D20*
%TO.P,C1,2*%
%TO.N,GND*%
X96502500Y-126800000D03*
%TD*%
D18*
%TO.P,J2,1,Pin_1*%
%TO.N,Net-(D2-A)*%
X30480000Y-129300000D03*
%TO.P,J2,2,Pin_2*%
%TO.N,Net-(D1-A)*%
X30480000Y-99330000D03*
%TD*%
D12*
%TO.P,Q1,1,G*%
%TO.N,Net-(J1-Pin_2)*%
X162560000Y-101600000D03*
D13*
%TO.P,Q1,2,D*%
%TO.N,GND*%
X160020000Y-101600000D03*
%TO.P,Q1,3,S*%
%TO.N,Net-(Q1-S)*%
X157480000Y-101600000D03*
%TD*%
D14*
%TO.P,D1,1,K*%
%TO.N,Net-(D1-K)*%
X58420000Y-88900000D03*
D15*
%TO.P,D1,2,A*%
%TO.N,Net-(D1-A)*%
X58420000Y-99060000D03*
%TD*%
D21*
%TO.N,Net-(D1-K)*%
X96520000Y-88900000D02*
X78740000Y-88900000D01*
X96502500Y-88917500D02*
X96520000Y-88900000D01*
X58420000Y-88900000D02*
X78740000Y-88900000D01*
X78740000Y-88900000D02*
X78740000Y-93980000D01*
X96502500Y-101800000D02*
X96502500Y-88917500D01*
X116640000Y-101800000D02*
X116840000Y-101600000D01*
X96502500Y-101800000D02*
X116640000Y-101800000D01*
%TO.N,Net-(D1-A)*%
X58150000Y-99330000D02*
X58420000Y-99060000D01*
X58420000Y-99060000D02*
X58420000Y-132080000D01*
X30480000Y-99330000D02*
X58150000Y-99330000D01*
%TO.N,Net-(D2-A)*%
X35560000Y-134380000D02*
X70880000Y-134380000D01*
X78740000Y-114300000D02*
X78740000Y-124460000D01*
X71120000Y-114300000D02*
X78740000Y-114300000D01*
X78740000Y-104140000D02*
X78740000Y-114300000D01*
X71120000Y-134620000D02*
X71120000Y-114300000D01*
X30480000Y-129300000D02*
X35560000Y-134380000D01*
X70880000Y-134380000D02*
X71120000Y-134620000D01*
%TO.N,GND*%
X160020000Y-101600000D02*
X160020000Y-142240000D01*
X78740000Y-142240000D02*
X78740000Y-134620000D01*
X160020000Y-101600000D02*
X160020000Y-96520000D01*
X96520000Y-142240000D02*
X78740000Y-142240000D01*
X160020000Y-96520000D02*
X175260000Y-96520000D01*
X119380000Y-101600000D02*
X119332500Y-101647500D01*
X160020000Y-142240000D02*
X119380000Y-142240000D01*
X119380000Y-142240000D02*
X119332500Y-142192500D01*
X119332500Y-101647500D02*
X119332500Y-142192500D01*
X119380000Y-142240000D02*
X96520000Y-142240000D01*
X96502500Y-126800000D02*
X96502500Y-142222500D01*
X58420000Y-142240000D02*
X78740000Y-142240000D01*
X96520000Y-142240000D02*
X96502500Y-142222500D01*
X175260000Y-96520000D02*
X175260000Y-101600000D01*
%TO.N,Net-(J1-Pin_2)*%
X162560000Y-129540000D02*
X162810000Y-129290000D01*
X162810000Y-129290000D02*
X220980000Y-129290000D01*
X162560000Y-101600000D02*
X162560000Y-129540000D01*
%TO.N,Net-(Q1-S)*%
X147320000Y-101600000D02*
X157480000Y-101600000D01*
%TO.N,Net-(J1-Pin_3)*%
X139360000Y-94320000D02*
X228260000Y-94320000D01*
X228260000Y-94320000D02*
X228600000Y-93980000D01*
X132080000Y-101600000D02*
X139360000Y-94320000D01*
X228600000Y-93980000D02*
X228600000Y-144780000D01*
X221490000Y-144780000D02*
X220980000Y-144270000D01*
X228600000Y-144780000D02*
X221490000Y-144780000D01*
X121920000Y-101600000D02*
X132080000Y-101600000D01*
%TO.N,Net-(J1-Pin_1)*%
X220980000Y-101600000D02*
X220980000Y-114300000D01*
X190500000Y-101600000D02*
X220980000Y-101600000D01*
%TD*%
%TA.AperFunction,Conductor*%
%TO.N,GND*%
G36*
X238703039Y-81299685D02*
G01*
X238748794Y-81352489D01*
X238760000Y-81404000D01*
X238760000Y-159896000D01*
X238740315Y-159963039D01*
X238687511Y-160008794D01*
X238636000Y-160020000D01*
X17904000Y-160020000D01*
X17836961Y-160000315D01*
X17791206Y-159947511D01*
X17780000Y-159896000D01*
X17780000Y-147220929D01*
X170080930Y-147220929D01*
X170080930Y-153329071D01*
X201589071Y-153329071D01*
X201589071Y-147220929D01*
X170080930Y-147220929D01*
X17780000Y-147220929D01*
X17780000Y-142490000D01*
X56834728Y-142490000D01*
X56834811Y-142491068D01*
X56893603Y-142735956D01*
X56989982Y-142968632D01*
X57121569Y-143183364D01*
X57285130Y-143374869D01*
X57476635Y-143538430D01*
X57691367Y-143670017D01*
X57924043Y-143766396D01*
X58168931Y-143825188D01*
X58169999Y-143825271D01*
X58170000Y-143825271D01*
X58170000Y-142731683D01*
X58198819Y-142749209D01*
X58344404Y-142790000D01*
X58457622Y-142790000D01*
X58569783Y-142774584D01*
X58670000Y-142731053D01*
X58670000Y-143825271D01*
X58671068Y-143825188D01*
X58915956Y-143766396D01*
X59148632Y-143670017D01*
X59363364Y-143538430D01*
X59554869Y-143374869D01*
X59718430Y-143183364D01*
X59850017Y-142968632D01*
X59946396Y-142735956D01*
X60005188Y-142491068D01*
X60005272Y-142490000D01*
X58914852Y-142490000D01*
X58963559Y-142352953D01*
X58973877Y-142202114D01*
X58943116Y-142054085D01*
X58909910Y-141990000D01*
X60005271Y-141990000D01*
X60005271Y-141989999D01*
X60005188Y-141988931D01*
X59946396Y-141744043D01*
X59850017Y-141511367D01*
X59718430Y-141296635D01*
X59554869Y-141105130D01*
X59363364Y-140941569D01*
X59148632Y-140809982D01*
X58915956Y-140713603D01*
X58671070Y-140654812D01*
X58670000Y-140654727D01*
X58670000Y-141748316D01*
X58641181Y-141730791D01*
X58495596Y-141690000D01*
X58382378Y-141690000D01*
X58270217Y-141705416D01*
X58170000Y-141748946D01*
X58170000Y-140654727D01*
X58168929Y-140654812D01*
X57924043Y-140713603D01*
X57691367Y-140809982D01*
X57476635Y-140941569D01*
X57285130Y-141105130D01*
X57121569Y-141296635D01*
X56989982Y-141511367D01*
X56893603Y-141744043D01*
X56834811Y-141988931D01*
X56834728Y-141989999D01*
X56834729Y-141990000D01*
X57925148Y-141990000D01*
X57876441Y-142127047D01*
X57866123Y-142277886D01*
X57896884Y-142425915D01*
X57930090Y-142490000D01*
X56834728Y-142490000D01*
X17780000Y-142490000D01*
X17780000Y-129300000D01*
X24894467Y-129300000D01*
X24914589Y-129773686D01*
X24914922Y-129776292D01*
X24914923Y-129776295D01*
X24973195Y-130231355D01*
X24974810Y-130243960D01*
X24975361Y-130246517D01*
X24975363Y-130246528D01*
X25074139Y-130704850D01*
X25074142Y-130704861D01*
X25074696Y-130707432D01*
X25075465Y-130709946D01*
X25075468Y-130709954D01*
X25164163Y-130999572D01*
X25213527Y-131160763D01*
X25214506Y-131163199D01*
X25389319Y-131598241D01*
X25389325Y-131598255D01*
X25390303Y-131600688D01*
X25603751Y-132024036D01*
X25852332Y-132427758D01*
X25853879Y-132429849D01*
X25853888Y-132429863D01*
X26094729Y-132755500D01*
X26134256Y-132808944D01*
X26447490Y-133164847D01*
X26789780Y-133492905D01*
X27158657Y-133790753D01*
X27521978Y-134036315D01*
X27536668Y-134046244D01*
X27551464Y-134056244D01*
X27789731Y-134189348D01*
X27963064Y-134286178D01*
X27963069Y-134286181D01*
X27965372Y-134287467D01*
X28397398Y-134482755D01*
X28844429Y-134640701D01*
X28846973Y-134641363D01*
X28846975Y-134641364D01*
X29162445Y-134723505D01*
X29303244Y-134760167D01*
X29770538Y-134840293D01*
X30242943Y-134880500D01*
X30245574Y-134880500D01*
X30714426Y-134880500D01*
X30717057Y-134880500D01*
X31189462Y-134840293D01*
X31656756Y-134760167D01*
X32115571Y-134640701D01*
X32562602Y-134482755D01*
X32994628Y-134287467D01*
X33137847Y-134207458D01*
X33205974Y-134191948D01*
X33271671Y-134215732D01*
X33286003Y-134228031D01*
X34427665Y-135369693D01*
X34437837Y-135381211D01*
X34452261Y-135399743D01*
X34519045Y-135461222D01*
X34522743Y-135464771D01*
X34542874Y-135484902D01*
X34544828Y-135486557D01*
X34544839Y-135486567D01*
X34564598Y-135503301D01*
X34568441Y-135506694D01*
X34635215Y-135568164D01*
X34654873Y-135581006D01*
X34667184Y-135590187D01*
X34685106Y-135605366D01*
X34763078Y-135651827D01*
X34767407Y-135654529D01*
X34777261Y-135660967D01*
X34843393Y-135704173D01*
X34864906Y-135713609D01*
X34878549Y-135720633D01*
X34898727Y-135732656D01*
X34983267Y-135765643D01*
X34988003Y-135767605D01*
X35036975Y-135789086D01*
X35071119Y-135804063D01*
X35093885Y-135809827D01*
X35108508Y-135814512D01*
X35130386Y-135823049D01*
X35219193Y-135841670D01*
X35224186Y-135842825D01*
X35237920Y-135846302D01*
X35312179Y-135865108D01*
X35320197Y-135865772D01*
X35335573Y-135867047D01*
X35350781Y-135869262D01*
X35357434Y-135870656D01*
X35373763Y-135874081D01*
X35464455Y-135877831D01*
X35469557Y-135878148D01*
X35497933Y-135880500D01*
X35526404Y-135880500D01*
X35531526Y-135880605D01*
X35551983Y-135881452D01*
X35622219Y-135884357D01*
X35622219Y-135884356D01*
X35622221Y-135884357D01*
X35645526Y-135881452D01*
X35660865Y-135880500D01*
X70265137Y-135880500D01*
X70324154Y-135895445D01*
X70376330Y-135923681D01*
X70380742Y-135926187D01*
X70458726Y-135972655D01*
X70458727Y-135972655D01*
X70458730Y-135972657D01*
X70480592Y-135981187D01*
X70494533Y-135987648D01*
X70515186Y-135998826D01*
X70515192Y-135998829D01*
X70601052Y-136028305D01*
X70605857Y-136030066D01*
X70690386Y-136063049D01*
X70713364Y-136067867D01*
X70728161Y-136071941D01*
X70750386Y-136079571D01*
X70834451Y-136093598D01*
X70839905Y-136094508D01*
X70844944Y-136095455D01*
X70933763Y-136114080D01*
X70957220Y-136115049D01*
X70972503Y-136116634D01*
X70981442Y-136118126D01*
X70995664Y-136120500D01*
X70995665Y-136120500D01*
X71086411Y-136120500D01*
X71091536Y-136120606D01*
X71182219Y-136124357D01*
X71182219Y-136124356D01*
X71182221Y-136124357D01*
X71205525Y-136121452D01*
X71220864Y-136120500D01*
X71244334Y-136120500D01*
X71244335Y-136120500D01*
X71333854Y-136105561D01*
X71338919Y-136104824D01*
X71428981Y-136093598D01*
X71451473Y-136086901D01*
X71466455Y-136083435D01*
X71489608Y-136079572D01*
X71489607Y-136079572D01*
X71489614Y-136079571D01*
X71575501Y-136050084D01*
X71580287Y-136048551D01*
X71667313Y-136022644D01*
X71688419Y-136012324D01*
X71702583Y-136006458D01*
X71724810Y-135998828D01*
X71804681Y-135955602D01*
X71809116Y-135953319D01*
X71890716Y-135913429D01*
X71909819Y-135899788D01*
X71922857Y-135891650D01*
X71924202Y-135890921D01*
X71943509Y-135880474D01*
X72015147Y-135824715D01*
X72019247Y-135821659D01*
X72093090Y-135768936D01*
X72093091Y-135768934D01*
X72093095Y-135768932D01*
X72109697Y-135752328D01*
X72121207Y-135742164D01*
X72139744Y-135727738D01*
X72201234Y-135660940D01*
X72204760Y-135657266D01*
X72268927Y-135593100D01*
X72268927Y-135593099D01*
X72268932Y-135593095D01*
X72282580Y-135573978D01*
X72292249Y-135562072D01*
X72308164Y-135544785D01*
X72357826Y-135468769D01*
X72360669Y-135464608D01*
X72413429Y-135390716D01*
X72423743Y-135369615D01*
X72431330Y-135356262D01*
X72444173Y-135336607D01*
X72480624Y-135253507D01*
X72482780Y-135248855D01*
X72521330Y-135170000D01*
X72522644Y-135167313D01*
X72529347Y-135144797D01*
X72534629Y-135130387D01*
X72544063Y-135108881D01*
X72566350Y-135020869D01*
X72567686Y-135016015D01*
X72593598Y-134928981D01*
X72596502Y-134905678D01*
X72599341Y-134890591D01*
X72604556Y-134870000D01*
X77154728Y-134870000D01*
X77154811Y-134871068D01*
X77213603Y-135115956D01*
X77309982Y-135348632D01*
X77441569Y-135563364D01*
X77605130Y-135754869D01*
X77796635Y-135918430D01*
X78011367Y-136050017D01*
X78244043Y-136146396D01*
X78488931Y-136205188D01*
X78489999Y-136205271D01*
X78490000Y-136205271D01*
X78490000Y-135111683D01*
X78518819Y-135129209D01*
X78664404Y-135170000D01*
X78777622Y-135170000D01*
X78889783Y-135154584D01*
X78990000Y-135111053D01*
X78990000Y-136205271D01*
X78991068Y-136205188D01*
X79235956Y-136146396D01*
X79468632Y-136050017D01*
X79683364Y-135918430D01*
X79874869Y-135754869D01*
X80038430Y-135563364D01*
X80170017Y-135348632D01*
X80266396Y-135115956D01*
X80325188Y-134871068D01*
X80325272Y-134870000D01*
X79234852Y-134870000D01*
X79283559Y-134732953D01*
X79293877Y-134582114D01*
X79263116Y-134434085D01*
X79229910Y-134370000D01*
X80325271Y-134370000D01*
X80325271Y-134369999D01*
X80325188Y-134368931D01*
X80266396Y-134124043D01*
X80170017Y-133891367D01*
X80038430Y-133676635D01*
X79874869Y-133485130D01*
X79683364Y-133321569D01*
X79468632Y-133189982D01*
X79235956Y-133093603D01*
X78991070Y-133034812D01*
X78990000Y-133034727D01*
X78990000Y-134128316D01*
X78961181Y-134110791D01*
X78815596Y-134070000D01*
X78702378Y-134070000D01*
X78590217Y-134085416D01*
X78490000Y-134128946D01*
X78490000Y-133034727D01*
X78488929Y-133034812D01*
X78244043Y-133093603D01*
X78011367Y-133189982D01*
X77796635Y-133321569D01*
X77605130Y-133485130D01*
X77441569Y-133676635D01*
X77309982Y-133891367D01*
X77213603Y-134124043D01*
X77154811Y-134368931D01*
X77154728Y-134369999D01*
X77154729Y-134370000D01*
X78245148Y-134370000D01*
X78196441Y-134507047D01*
X78186123Y-134657886D01*
X78216884Y-134805915D01*
X78250090Y-134870000D01*
X77154728Y-134870000D01*
X72604556Y-134870000D01*
X72605108Y-134867821D01*
X72612607Y-134777308D01*
X72613121Y-134772352D01*
X72624357Y-134682221D01*
X72623350Y-134657886D01*
X72620606Y-134591535D01*
X72620500Y-134586410D01*
X72620500Y-126549999D01*
X94816467Y-126549999D01*
X94816468Y-126550000D01*
X95956618Y-126550000D01*
X95917944Y-126643369D01*
X95897323Y-126800000D01*
X95917944Y-126956631D01*
X95956618Y-127050000D01*
X94816468Y-127050000D01*
X94816773Y-127054080D01*
X94873471Y-127302491D01*
X94966557Y-127539669D01*
X95093954Y-127760328D01*
X95252817Y-127959536D01*
X95439595Y-128132841D01*
X95650115Y-128276371D01*
X95879679Y-128386922D01*
X96123154Y-128462025D01*
X96252500Y-128481520D01*
X96252500Y-127345881D01*
X96345869Y-127384556D01*
X96463177Y-127400000D01*
X96541823Y-127400000D01*
X96659131Y-127384556D01*
X96752498Y-127345881D01*
X96752499Y-128481519D01*
X96881845Y-128462025D01*
X97125323Y-128386921D01*
X97354879Y-128276374D01*
X97565407Y-128132839D01*
X97752182Y-127959536D01*
X97911045Y-127760328D01*
X98038442Y-127539669D01*
X98131528Y-127302491D01*
X98188226Y-127054080D01*
X98188532Y-127050000D01*
X97048382Y-127050000D01*
X97087056Y-126956631D01*
X97107677Y-126800000D01*
X97087056Y-126643369D01*
X97048382Y-126550000D01*
X98188532Y-126550000D01*
X98188532Y-126549999D01*
X98188226Y-126545919D01*
X98131528Y-126297508D01*
X98038442Y-126060330D01*
X97911045Y-125839671D01*
X97752182Y-125640463D01*
X97565407Y-125467160D01*
X97354879Y-125323625D01*
X97125323Y-125213078D01*
X96881845Y-125137974D01*
X96752499Y-125118479D01*
X96752499Y-126254118D01*
X96659131Y-126215444D01*
X96541823Y-126200000D01*
X96463177Y-126200000D01*
X96345869Y-126215444D01*
X96252500Y-126254118D01*
X96252500Y-125118479D01*
X96123154Y-125137974D01*
X95879679Y-125213077D01*
X95650115Y-125323628D01*
X95439595Y-125467158D01*
X95252817Y-125640463D01*
X95093954Y-125839671D01*
X94966557Y-126060330D01*
X94873471Y-126297508D01*
X94816773Y-126545919D01*
X94816467Y-126549999D01*
X72620500Y-126549999D01*
X72620500Y-115924500D01*
X72640185Y-115857461D01*
X72692989Y-115811706D01*
X72744500Y-115800500D01*
X77115500Y-115800500D01*
X77182539Y-115820185D01*
X77228294Y-115872989D01*
X77239500Y-115924500D01*
X77239500Y-123018561D01*
X77219815Y-123085600D01*
X77214768Y-123092871D01*
X77196204Y-123117669D01*
X77145910Y-123252515D01*
X77145909Y-123252517D01*
X77139500Y-123312127D01*
X77139500Y-123315448D01*
X77139500Y-123315449D01*
X77139500Y-125604560D01*
X77139500Y-125604578D01*
X77139501Y-125607872D01*
X77145909Y-125667483D01*
X77196204Y-125802331D01*
X77282454Y-125917546D01*
X77397669Y-126003796D01*
X77532517Y-126054091D01*
X77592127Y-126060500D01*
X79887872Y-126060499D01*
X79947483Y-126054091D01*
X80082331Y-126003796D01*
X80197546Y-125917546D01*
X80283796Y-125802331D01*
X80334091Y-125667483D01*
X80340500Y-125607873D01*
X80340499Y-123312128D01*
X80334091Y-123252517D01*
X80283796Y-123117669D01*
X80265231Y-123092870D01*
X80240816Y-123027406D01*
X80240500Y-123018561D01*
X80240500Y-104724446D01*
X80249938Y-104676994D01*
X80266873Y-104636111D01*
X80325683Y-104391148D01*
X80345449Y-104140000D01*
X80325683Y-103888852D01*
X80266873Y-103643889D01*
X80170466Y-103411141D01*
X80038836Y-103196341D01*
X79875224Y-103004776D01*
X79683659Y-102841164D01*
X79468859Y-102709534D01*
X79319996Y-102647873D01*
X79236110Y-102613126D01*
X78991149Y-102554317D01*
X78740000Y-102534551D01*
X78488850Y-102554317D01*
X78243889Y-102613126D01*
X78045225Y-102695416D01*
X78018319Y-102706561D01*
X78011139Y-102709535D01*
X77796342Y-102841163D01*
X77604776Y-103004776D01*
X77441163Y-103196342D01*
X77309535Y-103411139D01*
X77213126Y-103643889D01*
X77154317Y-103888850D01*
X77134551Y-104139999D01*
X77154317Y-104391149D01*
X77183251Y-104511670D01*
X77213127Y-104636111D01*
X77230061Y-104676994D01*
X77239500Y-104724446D01*
X77239500Y-112675500D01*
X77219815Y-112742539D01*
X77167011Y-112788294D01*
X77115500Y-112799500D01*
X70995663Y-112799500D01*
X70939293Y-112808905D01*
X70929127Y-112810172D01*
X70872180Y-112814891D01*
X70816787Y-112828918D01*
X70806762Y-112831020D01*
X70750388Y-112840428D01*
X70696318Y-112858989D01*
X70686502Y-112861911D01*
X70631119Y-112875937D01*
X70578791Y-112898890D01*
X70569244Y-112902615D01*
X70515190Y-112921171D01*
X70464928Y-112948372D01*
X70455722Y-112952872D01*
X70403393Y-112975825D01*
X70355561Y-113007075D01*
X70346763Y-113012318D01*
X70296489Y-113039526D01*
X70251395Y-113074624D01*
X70243059Y-113080576D01*
X70195217Y-113111834D01*
X70153176Y-113150535D01*
X70145358Y-113157156D01*
X70100258Y-113192259D01*
X70077146Y-113217364D01*
X70061544Y-113234312D01*
X70054312Y-113241544D01*
X70037364Y-113257146D01*
X70012259Y-113280258D01*
X69977156Y-113325358D01*
X69970535Y-113333176D01*
X69931834Y-113375217D01*
X69900576Y-113423059D01*
X69894624Y-113431395D01*
X69859526Y-113476489D01*
X69832318Y-113526763D01*
X69827075Y-113535561D01*
X69795825Y-113583393D01*
X69772872Y-113635722D01*
X69768372Y-113644928D01*
X69741171Y-113695190D01*
X69722615Y-113749244D01*
X69718890Y-113758791D01*
X69695937Y-113811119D01*
X69681911Y-113866502D01*
X69678989Y-113876318D01*
X69660428Y-113930388D01*
X69651020Y-113986762D01*
X69648918Y-113996787D01*
X69634891Y-114052180D01*
X69630172Y-114109127D01*
X69628905Y-114119293D01*
X69619500Y-114175662D01*
X69619500Y-132755500D01*
X69599815Y-132822539D01*
X69547011Y-132868294D01*
X69495500Y-132879500D01*
X60144500Y-132879500D01*
X60077461Y-132859815D01*
X60031706Y-132807011D01*
X60020500Y-132755500D01*
X60020499Y-130935439D01*
X60020499Y-130932128D01*
X60014091Y-130872517D01*
X59963796Y-130737669D01*
X59945231Y-130712870D01*
X59920816Y-130647406D01*
X59920500Y-130638561D01*
X59920500Y-99644446D01*
X59929938Y-99596994D01*
X59946873Y-99556111D01*
X60005683Y-99311148D01*
X60025449Y-99060000D01*
X60005683Y-98808852D01*
X59946873Y-98563889D01*
X59850466Y-98331141D01*
X59718836Y-98116341D01*
X59555224Y-97924776D01*
X59363659Y-97761164D01*
X59148859Y-97629534D01*
X59032484Y-97581330D01*
X58916110Y-97533126D01*
X58671149Y-97474317D01*
X58420000Y-97454551D01*
X58168850Y-97474317D01*
X57923889Y-97533126D01*
X57691139Y-97629535D01*
X57476342Y-97761163D01*
X57431116Y-97799790D01*
X57367354Y-97828361D01*
X57350584Y-97829500D01*
X35948512Y-97829500D01*
X35881473Y-97809815D01*
X35835718Y-97757011D01*
X35829947Y-97741810D01*
X35746473Y-97469237D01*
X35569697Y-97029312D01*
X35356249Y-96605964D01*
X35107668Y-96202242D01*
X35106117Y-96200145D01*
X35106111Y-96200136D01*
X34827305Y-95823167D01*
X34825744Y-95821056D01*
X34512510Y-95465153D01*
X34170220Y-95137095D01*
X34162877Y-95131166D01*
X33803408Y-94840914D01*
X33803402Y-94840909D01*
X33801343Y-94839247D01*
X33647041Y-94734957D01*
X33410710Y-94575225D01*
X33410703Y-94575221D01*
X33408536Y-94573756D01*
X33299386Y-94512781D01*
X32996935Y-94343821D01*
X32996920Y-94343813D01*
X32994628Y-94342533D01*
X32992229Y-94341448D01*
X32992216Y-94341442D01*
X32565001Y-94148329D01*
X32564992Y-94148325D01*
X32562602Y-94147245D01*
X32560129Y-94146371D01*
X32560121Y-94146368D01*
X32118051Y-93990175D01*
X32118045Y-93990173D01*
X32115571Y-93989299D01*
X32113041Y-93988640D01*
X32113024Y-93988635D01*
X31659305Y-93870496D01*
X31659289Y-93870492D01*
X31656756Y-93869833D01*
X31654173Y-93869390D01*
X31654154Y-93869386D01*
X31192052Y-93790151D01*
X31192049Y-93790150D01*
X31189462Y-93789707D01*
X31186848Y-93789484D01*
X31186844Y-93789484D01*
X30719682Y-93749723D01*
X30719672Y-93749722D01*
X30717057Y-93749500D01*
X30242943Y-93749500D01*
X30240328Y-93749722D01*
X30240317Y-93749723D01*
X29773155Y-93789484D01*
X29773148Y-93789484D01*
X29770538Y-93789707D01*
X29767953Y-93790150D01*
X29767947Y-93790151D01*
X29305845Y-93869386D01*
X29305822Y-93869390D01*
X29303244Y-93869833D01*
X29300715Y-93870491D01*
X29300694Y-93870496D01*
X28846975Y-93988635D01*
X28846951Y-93988642D01*
X28844429Y-93989299D01*
X28841960Y-93990171D01*
X28841948Y-93990175D01*
X28399878Y-94146368D01*
X28399862Y-94146374D01*
X28397398Y-94147245D01*
X28395015Y-94148322D01*
X28394998Y-94148329D01*
X27967783Y-94341442D01*
X27967760Y-94341453D01*
X27965372Y-94342533D01*
X27963088Y-94343808D01*
X27963064Y-94343821D01*
X27553753Y-94572477D01*
X27553747Y-94572480D01*
X27551464Y-94573756D01*
X27549306Y-94575214D01*
X27549289Y-94575225D01*
X27160852Y-94837763D01*
X27160845Y-94837768D01*
X27158657Y-94839247D01*
X27156608Y-94840901D01*
X27156591Y-94840914D01*
X26791842Y-95135429D01*
X26791827Y-95135441D01*
X26789780Y-95137095D01*
X26787878Y-95138916D01*
X26787871Y-95138924D01*
X26449391Y-95463330D01*
X26449378Y-95463342D01*
X26447490Y-95465153D01*
X26445761Y-95467116D01*
X26445749Y-95467130D01*
X26135996Y-95819078D01*
X26135986Y-95819089D01*
X26134256Y-95821056D01*
X26132702Y-95823156D01*
X26132694Y-95823167D01*
X25853888Y-96200136D01*
X25853871Y-96200160D01*
X25852332Y-96202242D01*
X25850964Y-96204462D01*
X25850957Y-96204474D01*
X25605128Y-96603726D01*
X25605118Y-96603743D01*
X25603751Y-96605964D01*
X25602572Y-96608300D01*
X25602566Y-96608313D01*
X25391488Y-97026961D01*
X25390303Y-97029312D01*
X25389329Y-97031735D01*
X25389319Y-97031758D01*
X25219428Y-97454551D01*
X25213527Y-97469237D01*
X25212761Y-97471737D01*
X25212760Y-97471741D01*
X25075468Y-97920045D01*
X25075464Y-97920059D01*
X25074696Y-97922568D01*
X25074143Y-97925132D01*
X25074139Y-97925149D01*
X24975363Y-98383471D01*
X24975360Y-98383486D01*
X24974810Y-98386040D01*
X24974478Y-98388631D01*
X24974476Y-98388644D01*
X24914923Y-98853704D01*
X24914589Y-98856314D01*
X24894467Y-99330000D01*
X24914589Y-99803686D01*
X24914922Y-99806292D01*
X24914923Y-99806295D01*
X24971533Y-100248376D01*
X24974810Y-100273960D01*
X24975361Y-100276517D01*
X24975363Y-100276528D01*
X25074139Y-100734850D01*
X25074142Y-100734861D01*
X25074696Y-100737432D01*
X25075465Y-100739946D01*
X25075468Y-100739954D01*
X25138238Y-100944920D01*
X25213527Y-101190763D01*
X25214506Y-101193199D01*
X25389319Y-101628241D01*
X25389325Y-101628255D01*
X25390303Y-101630688D01*
X25437519Y-101724335D01*
X25576506Y-102000000D01*
X25603751Y-102054036D01*
X25605124Y-102056266D01*
X25605128Y-102056273D01*
X25725940Y-102252484D01*
X25852332Y-102457758D01*
X25853879Y-102459849D01*
X25853888Y-102459863D01*
X26053780Y-102730134D01*
X26134256Y-102838944D01*
X26135996Y-102840921D01*
X26428252Y-103172989D01*
X26447490Y-103194847D01*
X26789780Y-103522905D01*
X26791841Y-103524569D01*
X26791842Y-103524570D01*
X26939615Y-103643889D01*
X27158657Y-103820753D01*
X27551464Y-104086244D01*
X27647692Y-104140000D01*
X27963064Y-104316178D01*
X27963069Y-104316181D01*
X27965372Y-104317467D01*
X28397398Y-104512755D01*
X28844429Y-104670701D01*
X29303244Y-104790167D01*
X29770538Y-104870293D01*
X30242943Y-104910500D01*
X30245574Y-104910500D01*
X30714426Y-104910500D01*
X30717057Y-104910500D01*
X31189462Y-104870293D01*
X31656756Y-104790167D01*
X32115571Y-104670701D01*
X32562602Y-104512755D01*
X32994628Y-104317467D01*
X33408536Y-104086244D01*
X33801343Y-103820753D01*
X34170220Y-103522905D01*
X34512510Y-103194847D01*
X34825744Y-102838944D01*
X35107668Y-102457758D01*
X35356249Y-102054036D01*
X35569697Y-101630688D01*
X35746473Y-101190763D01*
X35829947Y-100918189D01*
X35868400Y-100859853D01*
X35932287Y-100831566D01*
X35948512Y-100830500D01*
X56795500Y-100830500D01*
X56862539Y-100850185D01*
X56908294Y-100902989D01*
X56919500Y-100954500D01*
X56919500Y-130638561D01*
X56899815Y-130705600D01*
X56894768Y-130712871D01*
X56876204Y-130737669D01*
X56825910Y-130872515D01*
X56825909Y-130872517D01*
X56819500Y-130932127D01*
X56819500Y-130935448D01*
X56819500Y-130935449D01*
X56819501Y-132755500D01*
X56799816Y-132822539D01*
X56747013Y-132868294D01*
X56695501Y-132879500D01*
X36232890Y-132879500D01*
X36165851Y-132859815D01*
X36145209Y-132843181D01*
X35409551Y-132107523D01*
X35376066Y-132046200D01*
X35381050Y-131976508D01*
X35386499Y-131964038D01*
X35569697Y-131600688D01*
X35746473Y-131160763D01*
X35885304Y-130707432D01*
X35985190Y-130243960D01*
X36045411Y-129773686D01*
X36065533Y-129300000D01*
X36045411Y-128826314D01*
X35985190Y-128356040D01*
X35885304Y-127892568D01*
X35746473Y-127439237D01*
X35569697Y-126999312D01*
X35356249Y-126575964D01*
X35107668Y-126172242D01*
X35106117Y-126170145D01*
X35106111Y-126170136D01*
X34918881Y-125916986D01*
X34825744Y-125791056D01*
X34512510Y-125435153D01*
X34170220Y-125107095D01*
X34168157Y-125105429D01*
X33803408Y-124810914D01*
X33803402Y-124810909D01*
X33801343Y-124809247D01*
X33647041Y-124704957D01*
X33410710Y-124545225D01*
X33410703Y-124545221D01*
X33408536Y-124543756D01*
X33299386Y-124482781D01*
X32996935Y-124313821D01*
X32996920Y-124313813D01*
X32994628Y-124312533D01*
X32992229Y-124311448D01*
X32992216Y-124311442D01*
X32565001Y-124118329D01*
X32564992Y-124118325D01*
X32562602Y-124117245D01*
X32560129Y-124116371D01*
X32560121Y-124116368D01*
X32118051Y-123960175D01*
X32118045Y-123960173D01*
X32115571Y-123959299D01*
X32113041Y-123958640D01*
X32113024Y-123958635D01*
X31659305Y-123840496D01*
X31659289Y-123840492D01*
X31656756Y-123839833D01*
X31654173Y-123839390D01*
X31654154Y-123839386D01*
X31192052Y-123760151D01*
X31192049Y-123760150D01*
X31189462Y-123759707D01*
X31186848Y-123759484D01*
X31186844Y-123759484D01*
X30719682Y-123719723D01*
X30719672Y-123719722D01*
X30717057Y-123719500D01*
X30242943Y-123719500D01*
X30240328Y-123719722D01*
X30240317Y-123719723D01*
X29773155Y-123759484D01*
X29773148Y-123759484D01*
X29770538Y-123759707D01*
X29767953Y-123760150D01*
X29767947Y-123760151D01*
X29305845Y-123839386D01*
X29305822Y-123839390D01*
X29303244Y-123839833D01*
X29300715Y-123840491D01*
X29300694Y-123840496D01*
X28846975Y-123958635D01*
X28846951Y-123958642D01*
X28844429Y-123959299D01*
X28841960Y-123960171D01*
X28841948Y-123960175D01*
X28399878Y-124116368D01*
X28399862Y-124116374D01*
X28397398Y-124117245D01*
X28395015Y-124118322D01*
X28394998Y-124118329D01*
X27967783Y-124311442D01*
X27967760Y-124311453D01*
X27965372Y-124312533D01*
X27963088Y-124313808D01*
X27963064Y-124313821D01*
X27553753Y-124542477D01*
X27553747Y-124542480D01*
X27551464Y-124543756D01*
X27549306Y-124545214D01*
X27549289Y-124545225D01*
X27160852Y-124807763D01*
X27160845Y-124807768D01*
X27158657Y-124809247D01*
X27156608Y-124810901D01*
X27156591Y-124810914D01*
X26791842Y-125105429D01*
X26791827Y-125105441D01*
X26789780Y-125107095D01*
X26787878Y-125108916D01*
X26787871Y-125108924D01*
X26449391Y-125433330D01*
X26449378Y-125433342D01*
X26447490Y-125435153D01*
X26445761Y-125437116D01*
X26445749Y-125437130D01*
X26135996Y-125789078D01*
X26135986Y-125789089D01*
X26134256Y-125791056D01*
X26132702Y-125793156D01*
X26132694Y-125793167D01*
X25853888Y-126170136D01*
X25853871Y-126170160D01*
X25852332Y-126172242D01*
X25850964Y-126174462D01*
X25850957Y-126174474D01*
X25605128Y-126573726D01*
X25605118Y-126573743D01*
X25603751Y-126575964D01*
X25602572Y-126578300D01*
X25602566Y-126578313D01*
X25391488Y-126996961D01*
X25390303Y-126999312D01*
X25389329Y-127001735D01*
X25389319Y-127001758D01*
X25217545Y-127429237D01*
X25213527Y-127439237D01*
X25212761Y-127441737D01*
X25212760Y-127441741D01*
X25075468Y-127890045D01*
X25075464Y-127890059D01*
X25074696Y-127892568D01*
X25074143Y-127895132D01*
X25074139Y-127895149D01*
X24975363Y-128353471D01*
X24975360Y-128353486D01*
X24974810Y-128356040D01*
X24974478Y-128358631D01*
X24974476Y-128358644D01*
X24915532Y-128818949D01*
X24914589Y-128826314D01*
X24894467Y-129300000D01*
X17780000Y-129300000D01*
X17780000Y-90044578D01*
X56819500Y-90044578D01*
X56819501Y-90047872D01*
X56825909Y-90107483D01*
X56876204Y-90242331D01*
X56962454Y-90357546D01*
X57077669Y-90443796D01*
X57212517Y-90494091D01*
X57272127Y-90500500D01*
X59567872Y-90500499D01*
X59627483Y-90494091D01*
X59762331Y-90443796D01*
X59787129Y-90425231D01*
X59852594Y-90400816D01*
X59861439Y-90400500D01*
X77115500Y-90400500D01*
X77182539Y-90420185D01*
X77228294Y-90472989D01*
X77239500Y-90524500D01*
X77239500Y-92538561D01*
X77219815Y-92605600D01*
X77214770Y-92612866D01*
X77210324Y-92618807D01*
X77196204Y-92637669D01*
X77145909Y-92772516D01*
X77140858Y-92819500D01*
X77139500Y-92832127D01*
X77139500Y-92835448D01*
X77139500Y-92835449D01*
X77139500Y-95124560D01*
X77139500Y-95124578D01*
X77139501Y-95127872D01*
X77145909Y-95187483D01*
X77196204Y-95322331D01*
X77282454Y-95437546D01*
X77397669Y-95523796D01*
X77532517Y-95574091D01*
X77592127Y-95580500D01*
X79887872Y-95580499D01*
X79947483Y-95574091D01*
X80082331Y-95523796D01*
X80197546Y-95437546D01*
X80283796Y-95322331D01*
X80334091Y-95187483D01*
X80340500Y-95127873D01*
X80340499Y-92832128D01*
X80334091Y-92772517D01*
X80283796Y-92637669D01*
X80265231Y-92612870D01*
X80240816Y-92547406D01*
X80240500Y-92538561D01*
X80240500Y-90524500D01*
X80260185Y-90457461D01*
X80312989Y-90411706D01*
X80364500Y-90400500D01*
X94878000Y-90400500D01*
X94945039Y-90420185D01*
X94990794Y-90472989D01*
X95002000Y-90524500D01*
X95002000Y-100137679D01*
X94982315Y-100204718D01*
X94952313Y-100236944D01*
X94944955Y-100242451D01*
X94858704Y-100357668D01*
X94808409Y-100492516D01*
X94805350Y-100520973D01*
X94802000Y-100552127D01*
X94802000Y-100555448D01*
X94802000Y-100555449D01*
X94802000Y-103044560D01*
X94802000Y-103044578D01*
X94802001Y-103047872D01*
X94802353Y-103051152D01*
X94802354Y-103051159D01*
X94808409Y-103107484D01*
X94819304Y-103136694D01*
X94858704Y-103242331D01*
X94944954Y-103357546D01*
X95060169Y-103443796D01*
X95195017Y-103494091D01*
X95254627Y-103500500D01*
X97750372Y-103500499D01*
X97809983Y-103494091D01*
X97944831Y-103443796D01*
X98060046Y-103357546D01*
X98065553Y-103350188D01*
X98121486Y-103308319D01*
X98164820Y-103300500D01*
X116539135Y-103300500D01*
X116554473Y-103301452D01*
X116577779Y-103304357D01*
X116577779Y-103304356D01*
X116577780Y-103304357D01*
X116648017Y-103301452D01*
X116668473Y-103300605D01*
X116673596Y-103300500D01*
X116699498Y-103300500D01*
X116702067Y-103300500D01*
X116730447Y-103298147D01*
X116735540Y-103297831D01*
X116826237Y-103294081D01*
X116849209Y-103289263D01*
X116864413Y-103287047D01*
X116887821Y-103285108D01*
X116975838Y-103262818D01*
X116980754Y-103261680D01*
X117069614Y-103243049D01*
X117091496Y-103234510D01*
X117106116Y-103229827D01*
X117128881Y-103224063D01*
X117212008Y-103187599D01*
X117216699Y-103185656D01*
X117301274Y-103152656D01*
X117321456Y-103140628D01*
X117335101Y-103133605D01*
X117356607Y-103124173D01*
X117360638Y-103121539D01*
X117361937Y-103120691D01*
X117428826Y-103100503D01*
X117429759Y-103100499D01*
X117837061Y-103100499D01*
X117840372Y-103100499D01*
X117899983Y-103094091D01*
X118034831Y-103043796D01*
X118150046Y-102957546D01*
X118236296Y-102842331D01*
X118247909Y-102811194D01*
X118289779Y-102755262D01*
X118355243Y-102730845D01*
X118423516Y-102745696D01*
X118440252Y-102756675D01*
X118582836Y-102867652D01*
X118794539Y-102982219D01*
X119022208Y-103060379D01*
X119130000Y-103078366D01*
X119130000Y-102091683D01*
X119158819Y-102109209D01*
X119304404Y-102150000D01*
X119417622Y-102150000D01*
X119529783Y-102134584D01*
X119629999Y-102091053D01*
X119629999Y-103078365D01*
X119737791Y-103060379D01*
X119965460Y-102982219D01*
X120177164Y-102867651D01*
X120367122Y-102719801D01*
X120530156Y-102542700D01*
X120536537Y-102532933D01*
X120589682Y-102487575D01*
X120658913Y-102478150D01*
X120722249Y-102507650D01*
X120738200Y-102524590D01*
X120812258Y-102619740D01*
X120812261Y-102619742D01*
X120812262Y-102619744D01*
X120995215Y-102788164D01*
X121203393Y-102924173D01*
X121203395Y-102924174D01*
X121203397Y-102924175D01*
X121319210Y-102974975D01*
X121328414Y-102979474D01*
X121334336Y-102982679D01*
X121340706Y-102984866D01*
X121350235Y-102988584D01*
X121431119Y-103024063D01*
X121516733Y-103045742D01*
X121526549Y-103048665D01*
X121562090Y-103060867D01*
X121599142Y-103067049D01*
X121609168Y-103069151D01*
X121672179Y-103085108D01*
X121736960Y-103090475D01*
X121747116Y-103091741D01*
X121799601Y-103100500D01*
X121857933Y-103100500D01*
X131979135Y-103100500D01*
X131994473Y-103101452D01*
X132017779Y-103104357D01*
X132017779Y-103104356D01*
X132017780Y-103104357D01*
X132088017Y-103101452D01*
X132108473Y-103100605D01*
X132113596Y-103100500D01*
X132139498Y-103100500D01*
X132142067Y-103100500D01*
X132170447Y-103098147D01*
X132175540Y-103097831D01*
X132266237Y-103094081D01*
X132289209Y-103089263D01*
X132304413Y-103087047D01*
X132327821Y-103085108D01*
X132415838Y-103062818D01*
X132420754Y-103061680D01*
X132509614Y-103043049D01*
X132531496Y-103034510D01*
X132546116Y-103029827D01*
X132568881Y-103024063D01*
X132652008Y-102987599D01*
X132656699Y-102985656D01*
X132741274Y-102952656D01*
X132761456Y-102940628D01*
X132775101Y-102933605D01*
X132796607Y-102924173D01*
X132872593Y-102874528D01*
X132876916Y-102871830D01*
X132954894Y-102825366D01*
X132972813Y-102810188D01*
X132985126Y-102801006D01*
X133004785Y-102788164D01*
X133038991Y-102756675D01*
X133071551Y-102726701D01*
X133075383Y-102723315D01*
X133097126Y-102704902D01*
X133117313Y-102684714D01*
X133120939Y-102681235D01*
X133187738Y-102619744D01*
X133202167Y-102601203D01*
X133212325Y-102589701D01*
X134077692Y-101724334D01*
X145819500Y-101724334D01*
X145860429Y-101969615D01*
X145941170Y-102204805D01*
X145941172Y-102204810D01*
X146006471Y-102325472D01*
X146059529Y-102423514D01*
X146152296Y-102542700D01*
X146212262Y-102619744D01*
X146395215Y-102788164D01*
X146603393Y-102924173D01*
X146603395Y-102924174D01*
X146622787Y-102932680D01*
X146831119Y-103024063D01*
X147072179Y-103085108D01*
X147257933Y-103100500D01*
X147260503Y-103100500D01*
X157600400Y-103100500D01*
X157619859Y-103097252D01*
X157652870Y-103091743D01*
X157663032Y-103090475D01*
X157727821Y-103085108D01*
X157790858Y-103069143D01*
X157800827Y-103067053D01*
X157837913Y-103060866D01*
X157873452Y-103048664D01*
X157883262Y-103045743D01*
X157968881Y-103024063D01*
X158049760Y-102988585D01*
X158059308Y-102984861D01*
X158060875Y-102984322D01*
X158065664Y-102982679D01*
X158071578Y-102979477D01*
X158080781Y-102974978D01*
X158177213Y-102932680D01*
X158196605Y-102924174D01*
X158196607Y-102924173D01*
X158404785Y-102788164D01*
X158587738Y-102619744D01*
X158647704Y-102542700D01*
X158661799Y-102524591D01*
X158718509Y-102483778D01*
X158788282Y-102480103D01*
X158848965Y-102514735D01*
X158863460Y-102532930D01*
X158869846Y-102542705D01*
X159032873Y-102719798D01*
X159222835Y-102867651D01*
X159434539Y-102982219D01*
X159662208Y-103060379D01*
X159770000Y-103078366D01*
X159770000Y-102091683D01*
X159798819Y-102109209D01*
X159944404Y-102150000D01*
X160057622Y-102150000D01*
X160169783Y-102134584D01*
X160270000Y-102091053D01*
X160270000Y-103078365D01*
X160377791Y-103060379D01*
X160605460Y-102982219D01*
X160817164Y-102867651D01*
X160859337Y-102834827D01*
X160924331Y-102809184D01*
X160992871Y-102822750D01*
X161043196Y-102871218D01*
X161059500Y-102932680D01*
X161059500Y-129506402D01*
X161059394Y-129511527D01*
X161055642Y-129602220D01*
X161066870Y-129692301D01*
X161067398Y-129697396D01*
X161074891Y-129787818D01*
X161080654Y-129810576D01*
X161083496Y-129825676D01*
X161086401Y-129848982D01*
X161112300Y-129935974D01*
X161113660Y-129940915D01*
X161135936Y-130028878D01*
X161145369Y-130050385D01*
X161150656Y-130064808D01*
X161157357Y-130087316D01*
X161197220Y-130168859D01*
X161199374Y-130173506D01*
X161235827Y-130256608D01*
X161248662Y-130276253D01*
X161256254Y-130289613D01*
X161266570Y-130310715D01*
X161319310Y-130384581D01*
X161322202Y-130388814D01*
X161371837Y-130464787D01*
X161387738Y-130482060D01*
X161397424Y-130493987D01*
X161411068Y-130513096D01*
X161475250Y-130577278D01*
X161478776Y-130580953D01*
X161540256Y-130647738D01*
X161558790Y-130662163D01*
X161570308Y-130672336D01*
X161586905Y-130688933D01*
X161660770Y-130741672D01*
X161664852Y-130744715D01*
X161736491Y-130800474D01*
X161757139Y-130811648D01*
X161770168Y-130819780D01*
X161789284Y-130833429D01*
X161815398Y-130846195D01*
X161870812Y-130873285D01*
X161875369Y-130875631D01*
X161880098Y-130878190D01*
X161955190Y-130918828D01*
X161964445Y-130922005D01*
X161977400Y-130926453D01*
X161991591Y-130932331D01*
X162012687Y-130942644D01*
X162099668Y-130968539D01*
X162104544Y-130970101D01*
X162190386Y-130999571D01*
X162213533Y-131003433D01*
X162228512Y-131006898D01*
X162251018Y-131013599D01*
X162265910Y-131015455D01*
X162341109Y-131024827D01*
X162346132Y-131025559D01*
X162435665Y-131040500D01*
X162459135Y-131040500D01*
X162474473Y-131041452D01*
X162497779Y-131044357D01*
X162497779Y-131044356D01*
X162497780Y-131044357D01*
X162568017Y-131041452D01*
X162588473Y-131040605D01*
X162593596Y-131040500D01*
X162684334Y-131040500D01*
X162684335Y-131040500D01*
X162707487Y-131036636D01*
X162722773Y-131035051D01*
X162746238Y-131034081D01*
X162835063Y-131015455D01*
X162840081Y-131014510D01*
X162907604Y-131003243D01*
X162929609Y-130999572D01*
X162929609Y-130999571D01*
X162929614Y-130999571D01*
X162951834Y-130991942D01*
X162966633Y-130987867D01*
X162989614Y-130983049D01*
X163074183Y-130950049D01*
X163078915Y-130948315D01*
X163164810Y-130918828D01*
X163185463Y-130907650D01*
X163199397Y-130901191D01*
X163221274Y-130892656D01*
X163299256Y-130846187D01*
X163303659Y-130843685D01*
X163374325Y-130805443D01*
X163433340Y-130790500D01*
X215511488Y-130790500D01*
X215578527Y-130810185D01*
X215624282Y-130862989D01*
X215630051Y-130878185D01*
X215713527Y-131150763D01*
X215714506Y-131153199D01*
X215889319Y-131588241D01*
X215889325Y-131588255D01*
X215890303Y-131590688D01*
X216103751Y-132014036D01*
X216105124Y-132016266D01*
X216105128Y-132016273D01*
X216121411Y-132042718D01*
X216352332Y-132417758D01*
X216353879Y-132419849D01*
X216353888Y-132419863D01*
X216602125Y-132755500D01*
X216634256Y-132798944D01*
X216635996Y-132800921D01*
X216893588Y-133093603D01*
X216947490Y-133154847D01*
X217289780Y-133482905D01*
X217291841Y-133484569D01*
X217291842Y-133484570D01*
X217529709Y-133676635D01*
X217658657Y-133780753D01*
X218051464Y-134046244D01*
X218190731Y-134124043D01*
X218463064Y-134276178D01*
X218463069Y-134276181D01*
X218465372Y-134277467D01*
X218467779Y-134278555D01*
X218467783Y-134278557D01*
X218658099Y-134364585D01*
X218897398Y-134472755D01*
X219344429Y-134630701D01*
X219803244Y-134750167D01*
X220270538Y-134830293D01*
X220742943Y-134870500D01*
X220745574Y-134870500D01*
X221214426Y-134870500D01*
X221217057Y-134870500D01*
X221689462Y-134830293D01*
X222156756Y-134750167D01*
X222615571Y-134630701D01*
X223062602Y-134472755D01*
X223494628Y-134277467D01*
X223908536Y-134046244D01*
X224301343Y-133780753D01*
X224670220Y-133482905D01*
X225012510Y-133154847D01*
X225325744Y-132798944D01*
X225607668Y-132417758D01*
X225856249Y-132014036D01*
X226069697Y-131590688D01*
X226246473Y-131150763D01*
X226385304Y-130697432D01*
X226485190Y-130233960D01*
X226545411Y-129763686D01*
X226565533Y-129290000D01*
X226545411Y-128816314D01*
X226485190Y-128346040D01*
X226385304Y-127882568D01*
X226246473Y-127429237D01*
X226069697Y-126989312D01*
X225856249Y-126565964D01*
X225607668Y-126162242D01*
X225606117Y-126160145D01*
X225606111Y-126160136D01*
X225327305Y-125783167D01*
X225325744Y-125781056D01*
X225012510Y-125425153D01*
X224670220Y-125097095D01*
X224668157Y-125095429D01*
X224303408Y-124800914D01*
X224303402Y-124800909D01*
X224301343Y-124799247D01*
X223925505Y-124545225D01*
X223910710Y-124535225D01*
X223910703Y-124535221D01*
X223908536Y-124533756D01*
X223799386Y-124472781D01*
X223496935Y-124303821D01*
X223496920Y-124303813D01*
X223494628Y-124302533D01*
X223492229Y-124301448D01*
X223492216Y-124301442D01*
X223065001Y-124108329D01*
X223064992Y-124108325D01*
X223062602Y-124107245D01*
X223060129Y-124106371D01*
X223060121Y-124106368D01*
X222618051Y-123950175D01*
X222618045Y-123950173D01*
X222615571Y-123949299D01*
X222613041Y-123948640D01*
X222613024Y-123948635D01*
X222159305Y-123830496D01*
X222159289Y-123830492D01*
X222156756Y-123829833D01*
X222154173Y-123829390D01*
X222154154Y-123829386D01*
X221692052Y-123750151D01*
X221692049Y-123750150D01*
X221689462Y-123749707D01*
X221686848Y-123749484D01*
X221686844Y-123749484D01*
X221219682Y-123709723D01*
X221219672Y-123709722D01*
X221217057Y-123709500D01*
X220742943Y-123709500D01*
X220740328Y-123709722D01*
X220740317Y-123709723D01*
X220273155Y-123749484D01*
X220273148Y-123749484D01*
X220270538Y-123749707D01*
X220267953Y-123750150D01*
X220267947Y-123750151D01*
X219805845Y-123829386D01*
X219805822Y-123829390D01*
X219803244Y-123829833D01*
X219800715Y-123830491D01*
X219800694Y-123830496D01*
X219346975Y-123948635D01*
X219346951Y-123948642D01*
X219344429Y-123949299D01*
X219341960Y-123950171D01*
X219341948Y-123950175D01*
X218899878Y-124106368D01*
X218899862Y-124106374D01*
X218897398Y-124107245D01*
X218895015Y-124108322D01*
X218894998Y-124108329D01*
X218467783Y-124301442D01*
X218467760Y-124301453D01*
X218465372Y-124302533D01*
X218463088Y-124303808D01*
X218463064Y-124303821D01*
X218053753Y-124532477D01*
X218053747Y-124532480D01*
X218051464Y-124533756D01*
X218049306Y-124535214D01*
X218049289Y-124535225D01*
X217660852Y-124797763D01*
X217660845Y-124797768D01*
X217658657Y-124799247D01*
X217656608Y-124800901D01*
X217656591Y-124800914D01*
X217291842Y-125095429D01*
X217291827Y-125095441D01*
X217289780Y-125097095D01*
X217287878Y-125098916D01*
X217287871Y-125098924D01*
X216949391Y-125423330D01*
X216949378Y-125423342D01*
X216947490Y-125425153D01*
X216945761Y-125427116D01*
X216945749Y-125427130D01*
X216635996Y-125779078D01*
X216635986Y-125779089D01*
X216634256Y-125781056D01*
X216632702Y-125783156D01*
X216632694Y-125783167D01*
X216353888Y-126160136D01*
X216353871Y-126160160D01*
X216352332Y-126162242D01*
X216350964Y-126164462D01*
X216350957Y-126164474D01*
X216105128Y-126563726D01*
X216105118Y-126563743D01*
X216103751Y-126565964D01*
X216102572Y-126568300D01*
X216102566Y-126568313D01*
X216064724Y-126643369D01*
X215890303Y-126989312D01*
X215889329Y-126991735D01*
X215889319Y-126991758D01*
X215731481Y-127384556D01*
X215713527Y-127429237D01*
X215712761Y-127431737D01*
X215712760Y-127431741D01*
X215709698Y-127441741D01*
X215641173Y-127665500D01*
X215630053Y-127701810D01*
X215591600Y-127760147D01*
X215527713Y-127788434D01*
X215511488Y-127789500D01*
X164184500Y-127789500D01*
X164117461Y-127769815D01*
X164071706Y-127717011D01*
X164060500Y-127665500D01*
X164060500Y-101600000D01*
X173955033Y-101600000D01*
X173974858Y-101826602D01*
X174033733Y-102046326D01*
X174129866Y-102252484D01*
X174180972Y-102325471D01*
X174180974Y-102325472D01*
X174862046Y-101644399D01*
X174874835Y-101725148D01*
X174932359Y-101838045D01*
X175021955Y-101927641D01*
X175134852Y-101985165D01*
X175215599Y-101997953D01*
X174534526Y-102679025D01*
X174534526Y-102679026D01*
X174607515Y-102730133D01*
X174813673Y-102826266D01*
X175033397Y-102885141D01*
X175260000Y-102904966D01*
X175486602Y-102885141D01*
X175706326Y-102826266D01*
X175912480Y-102730134D01*
X175985472Y-102679025D01*
X175304401Y-101997953D01*
X175385148Y-101985165D01*
X175498045Y-101927641D01*
X175587641Y-101838045D01*
X175645165Y-101725148D01*
X175657953Y-101644400D01*
X176339025Y-102325472D01*
X176390134Y-102252480D01*
X176486266Y-102046326D01*
X176545141Y-101826602D01*
X176554088Y-101724334D01*
X188999500Y-101724334D01*
X189040429Y-101969615D01*
X189121170Y-102204805D01*
X189121172Y-102204810D01*
X189186471Y-102325472D01*
X189239529Y-102423514D01*
X189332296Y-102542700D01*
X189392262Y-102619744D01*
X189575215Y-102788164D01*
X189783393Y-102924173D01*
X189783395Y-102924174D01*
X189802787Y-102932680D01*
X190011119Y-103024063D01*
X190252179Y-103085108D01*
X190437933Y-103100500D01*
X219355500Y-103100500D01*
X219422539Y-103120185D01*
X219468294Y-103172989D01*
X219479500Y-103224500D01*
X219479499Y-108828281D01*
X219459814Y-108895320D01*
X219407010Y-108941075D01*
X219386746Y-108948279D01*
X219346992Y-108958630D01*
X219346956Y-108958640D01*
X219344429Y-108959299D01*
X219341958Y-108960171D01*
X219341945Y-108960176D01*
X218899878Y-109116368D01*
X218899862Y-109116374D01*
X218897398Y-109117245D01*
X218895015Y-109118322D01*
X218894998Y-109118329D01*
X218467783Y-109311442D01*
X218467760Y-109311453D01*
X218465372Y-109312533D01*
X218463088Y-109313808D01*
X218463064Y-109313821D01*
X218053753Y-109542477D01*
X218053747Y-109542480D01*
X218051464Y-109543756D01*
X218049306Y-109545214D01*
X218049289Y-109545225D01*
X217660852Y-109807763D01*
X217660845Y-109807768D01*
X217658657Y-109809247D01*
X217656608Y-109810901D01*
X217656591Y-109810914D01*
X217291842Y-110105429D01*
X217291827Y-110105441D01*
X217289780Y-110107095D01*
X217287878Y-110108916D01*
X217287871Y-110108924D01*
X216949391Y-110433330D01*
X216949378Y-110433342D01*
X216947490Y-110435153D01*
X216945761Y-110437116D01*
X216945749Y-110437130D01*
X216635996Y-110789078D01*
X216635986Y-110789089D01*
X216634256Y-110791056D01*
X216632702Y-110793156D01*
X216632694Y-110793167D01*
X216353888Y-111170136D01*
X216353871Y-111170160D01*
X216352332Y-111172242D01*
X216350964Y-111174462D01*
X216350957Y-111174474D01*
X216105128Y-111573726D01*
X216105118Y-111573743D01*
X216103751Y-111575964D01*
X216102572Y-111578300D01*
X216102566Y-111578313D01*
X215891488Y-111996961D01*
X215890303Y-111999312D01*
X215889329Y-112001735D01*
X215889319Y-112001758D01*
X215714506Y-112436800D01*
X215713527Y-112439237D01*
X215712761Y-112441737D01*
X215712760Y-112441741D01*
X215575468Y-112890045D01*
X215575464Y-112890059D01*
X215574696Y-112892568D01*
X215574143Y-112895132D01*
X215574139Y-112895149D01*
X215475363Y-113353471D01*
X215475360Y-113353486D01*
X215474810Y-113356040D01*
X215474478Y-113358631D01*
X215474476Y-113358644D01*
X215416535Y-113811119D01*
X215414589Y-113826314D01*
X215414477Y-113828947D01*
X215414477Y-113828949D01*
X215394578Y-114297363D01*
X215394578Y-114297386D01*
X215394467Y-114300000D01*
X215394578Y-114302613D01*
X215394578Y-114302636D01*
X215414477Y-114771050D01*
X215414589Y-114773686D01*
X215474810Y-115243960D01*
X215475361Y-115246517D01*
X215475363Y-115246528D01*
X215574139Y-115704850D01*
X215574142Y-115704861D01*
X215574696Y-115707432D01*
X215575465Y-115709946D01*
X215575468Y-115709954D01*
X215609226Y-115820185D01*
X215713527Y-116160763D01*
X215714506Y-116163199D01*
X215889319Y-116598241D01*
X215889325Y-116598255D01*
X215890303Y-116600688D01*
X216103751Y-117024036D01*
X216352332Y-117427758D01*
X216353879Y-117429849D01*
X216353888Y-117429863D01*
X216623591Y-117794523D01*
X216634256Y-117808944D01*
X216947490Y-118164847D01*
X217289780Y-118492905D01*
X217658657Y-118790753D01*
X218051464Y-119056244D01*
X218334388Y-119214295D01*
X218463064Y-119286178D01*
X218463069Y-119286181D01*
X218465372Y-119287467D01*
X218897398Y-119482755D01*
X219344429Y-119640701D01*
X219803244Y-119760167D01*
X220270538Y-119840293D01*
X220742943Y-119880500D01*
X220745574Y-119880500D01*
X221214426Y-119880500D01*
X221217057Y-119880500D01*
X221689462Y-119840293D01*
X222156756Y-119760167D01*
X222615571Y-119640701D01*
X223062602Y-119482755D01*
X223494628Y-119287467D01*
X223908536Y-119056244D01*
X224301343Y-118790753D01*
X224670220Y-118492905D01*
X225012510Y-118164847D01*
X225325744Y-117808944D01*
X225607668Y-117427758D01*
X225856249Y-117024036D01*
X226069697Y-116600688D01*
X226246473Y-116160763D01*
X226385304Y-115707432D01*
X226485190Y-115243960D01*
X226545411Y-114773686D01*
X226565533Y-114300000D01*
X226545411Y-113826314D01*
X226485190Y-113356040D01*
X226385304Y-112892568D01*
X226246473Y-112439237D01*
X226069697Y-111999312D01*
X225856249Y-111575964D01*
X225607668Y-111172242D01*
X225606117Y-111170145D01*
X225606111Y-111170136D01*
X225327305Y-110793167D01*
X225325744Y-110791056D01*
X225012510Y-110435153D01*
X224670220Y-110107095D01*
X224301343Y-109809247D01*
X224147041Y-109704957D01*
X223910710Y-109545225D01*
X223910703Y-109545221D01*
X223908536Y-109543756D01*
X223799386Y-109482781D01*
X223496935Y-109313821D01*
X223496920Y-109313813D01*
X223494628Y-109312533D01*
X223492229Y-109311448D01*
X223492216Y-109311442D01*
X223065001Y-109118329D01*
X223064992Y-109118325D01*
X223062602Y-109117245D01*
X223060129Y-109116371D01*
X223060121Y-109116368D01*
X222618051Y-108960175D01*
X222618045Y-108960173D01*
X222615571Y-108959299D01*
X222613026Y-108958636D01*
X222613012Y-108958632D01*
X222573253Y-108948279D01*
X222513337Y-108912336D01*
X222482365Y-108849707D01*
X222480500Y-108828281D01*
X222480500Y-101475666D01*
X222471094Y-101419301D01*
X222469826Y-101409130D01*
X222465108Y-101352179D01*
X222451077Y-101296773D01*
X222448976Y-101286749D01*
X222439571Y-101230388D01*
X222439571Y-101230386D01*
X222421008Y-101176315D01*
X222418088Y-101166506D01*
X222404063Y-101111119D01*
X222381105Y-101058782D01*
X222377389Y-101049261D01*
X222358828Y-100995190D01*
X222358826Y-100995186D01*
X222331623Y-100944920D01*
X222327126Y-100935723D01*
X222304173Y-100883393D01*
X222272911Y-100835544D01*
X222267676Y-100826757D01*
X222240474Y-100776491D01*
X222205369Y-100731388D01*
X222199416Y-100723050D01*
X222168165Y-100675216D01*
X222151666Y-100657294D01*
X222129458Y-100633169D01*
X222122843Y-100625358D01*
X222087739Y-100580257D01*
X222087738Y-100580256D01*
X222045685Y-100541543D01*
X222038455Y-100534313D01*
X221999744Y-100492262D01*
X221970970Y-100469866D01*
X221954646Y-100457160D01*
X221946826Y-100450537D01*
X221904782Y-100411833D01*
X221856943Y-100380578D01*
X221848604Y-100374624D01*
X221803511Y-100339527D01*
X221753238Y-100312320D01*
X221744436Y-100307075D01*
X221696606Y-100275826D01*
X221644286Y-100252877D01*
X221635079Y-100248376D01*
X221584808Y-100221171D01*
X221530762Y-100202617D01*
X221521216Y-100198893D01*
X221468883Y-100175938D01*
X221468881Y-100175937D01*
X221468879Y-100175936D01*
X221468878Y-100175936D01*
X221413479Y-100161906D01*
X221403661Y-100158983D01*
X221349611Y-100140428D01*
X221293238Y-100131020D01*
X221283213Y-100128918D01*
X221227819Y-100114891D01*
X221170871Y-100110172D01*
X221160704Y-100108905D01*
X221104337Y-100099500D01*
X221104335Y-100099500D01*
X221042067Y-100099500D01*
X190437933Y-100099500D01*
X190322066Y-100109101D01*
X190252177Y-100114892D01*
X190151340Y-100140428D01*
X190011119Y-100175937D01*
X190011116Y-100175938D01*
X190011117Y-100175938D01*
X189783395Y-100275825D01*
X189644607Y-100366499D01*
X189575215Y-100411836D01*
X189419221Y-100555439D01*
X189392259Y-100580259D01*
X189239529Y-100776485D01*
X189121170Y-100995194D01*
X189040429Y-101230384D01*
X188999500Y-101475665D01*
X188999500Y-101724334D01*
X176554088Y-101724334D01*
X176564966Y-101600000D01*
X176545141Y-101373397D01*
X176486266Y-101153673D01*
X176390133Y-100947515D01*
X176339025Y-100874526D01*
X175657953Y-101555598D01*
X175645165Y-101474852D01*
X175587641Y-101361955D01*
X175498045Y-101272359D01*
X175385148Y-101214835D01*
X175304400Y-101202046D01*
X175985472Y-100520974D01*
X175985471Y-100520972D01*
X175912484Y-100469866D01*
X175706326Y-100373733D01*
X175486602Y-100314858D01*
X175260000Y-100295033D01*
X175033397Y-100314858D01*
X174813672Y-100373733D01*
X174607516Y-100469865D01*
X174534527Y-100520973D01*
X174534526Y-100520973D01*
X175215600Y-101202046D01*
X175134852Y-101214835D01*
X175021955Y-101272359D01*
X174932359Y-101361955D01*
X174874835Y-101474852D01*
X174862046Y-101555599D01*
X174180973Y-100874526D01*
X174180973Y-100874527D01*
X174129865Y-100947516D01*
X174033733Y-101153672D01*
X173974858Y-101373397D01*
X173955033Y-101600000D01*
X164060500Y-101600000D01*
X164060500Y-101540502D01*
X164060500Y-101537933D01*
X164045108Y-101352179D01*
X164024895Y-101272359D01*
X164016793Y-101240366D01*
X164012999Y-101209926D01*
X164012999Y-100555439D01*
X164012999Y-100555438D01*
X164012999Y-100552128D01*
X164006591Y-100492517D01*
X163956296Y-100357669D01*
X163870046Y-100242454D01*
X163754831Y-100156204D01*
X163619983Y-100105909D01*
X163560373Y-100099500D01*
X162684337Y-100099500D01*
X162684335Y-100099500D01*
X162435665Y-100099500D01*
X162435661Y-100099500D01*
X161562939Y-100099500D01*
X161562920Y-100099500D01*
X161559628Y-100099501D01*
X161556348Y-100099853D01*
X161556340Y-100099854D01*
X161500015Y-100105909D01*
X161365169Y-100156204D01*
X161249954Y-100242454D01*
X161163703Y-100357670D01*
X161152090Y-100388806D01*
X161110218Y-100444738D01*
X161044753Y-100469154D01*
X160976480Y-100454301D01*
X160959747Y-100443324D01*
X160817164Y-100332347D01*
X160605460Y-100217780D01*
X160377792Y-100139619D01*
X160270000Y-100121633D01*
X160270000Y-101108316D01*
X160241181Y-101090791D01*
X160095596Y-101050000D01*
X159982378Y-101050000D01*
X159870217Y-101065416D01*
X159770000Y-101108946D01*
X159770000Y-100121633D01*
X159769999Y-100121633D01*
X159662207Y-100139619D01*
X159434539Y-100217780D01*
X159222835Y-100332348D01*
X159032873Y-100480201D01*
X158869846Y-100657294D01*
X158863460Y-100667070D01*
X158810313Y-100712426D01*
X158741082Y-100721849D01*
X158677746Y-100692346D01*
X158661799Y-100675409D01*
X158587740Y-100580259D01*
X158587738Y-100580256D01*
X158404785Y-100411836D01*
X158244436Y-100307075D01*
X158196609Y-100275828D01*
X158196607Y-100275827D01*
X158080773Y-100225017D01*
X158071589Y-100220527D01*
X158065664Y-100217321D01*
X158059297Y-100215134D01*
X158049762Y-100211414D01*
X157968881Y-100175937D01*
X157883261Y-100154254D01*
X157873442Y-100151331D01*
X157837910Y-100139133D01*
X157800855Y-100132949D01*
X157790829Y-100130847D01*
X157727824Y-100114892D01*
X157712779Y-100113645D01*
X157663034Y-100109523D01*
X157652884Y-100108258D01*
X157600399Y-100099500D01*
X157542067Y-100099500D01*
X147257933Y-100099500D01*
X147142066Y-100109101D01*
X147072177Y-100114892D01*
X146971340Y-100140428D01*
X146831119Y-100175937D01*
X146831116Y-100175938D01*
X146831117Y-100175938D01*
X146603395Y-100275825D01*
X146464607Y-100366499D01*
X146395215Y-100411836D01*
X146239221Y-100555439D01*
X146212259Y-100580259D01*
X146059529Y-100776485D01*
X145941170Y-100995194D01*
X145860429Y-101230384D01*
X145819500Y-101475665D01*
X145819500Y-101724334D01*
X134077692Y-101724334D01*
X139945208Y-95856819D01*
X140006532Y-95823334D01*
X140032890Y-95820500D01*
X226975500Y-95820500D01*
X227042539Y-95840185D01*
X227088294Y-95892989D01*
X227099500Y-95944500D01*
X227099500Y-143155500D01*
X227079815Y-143222539D01*
X227027011Y-143268294D01*
X226975500Y-143279500D01*
X226575283Y-143279500D01*
X226508244Y-143259815D01*
X226462489Y-143207011D01*
X226454066Y-143181624D01*
X226448436Y-143155500D01*
X226385304Y-142862568D01*
X226246473Y-142409237D01*
X226069697Y-141969312D01*
X225856249Y-141545964D01*
X225607668Y-141142242D01*
X225606117Y-141140145D01*
X225606111Y-141140136D01*
X225418881Y-140886986D01*
X225325744Y-140761056D01*
X225012510Y-140405153D01*
X224670220Y-140077095D01*
X224301343Y-139779247D01*
X224147041Y-139674957D01*
X223910710Y-139515225D01*
X223910703Y-139515221D01*
X223908536Y-139513756D01*
X223799386Y-139452781D01*
X223496935Y-139283821D01*
X223496920Y-139283813D01*
X223494628Y-139282533D01*
X223492229Y-139281448D01*
X223492216Y-139281442D01*
X223065001Y-139088329D01*
X223064992Y-139088325D01*
X223062602Y-139087245D01*
X223060129Y-139086371D01*
X223060121Y-139086368D01*
X222618051Y-138930175D01*
X222618045Y-138930173D01*
X222615571Y-138929299D01*
X222613041Y-138928640D01*
X222613024Y-138928635D01*
X222159305Y-138810496D01*
X222159289Y-138810492D01*
X222156756Y-138809833D01*
X222154173Y-138809390D01*
X222154154Y-138809386D01*
X221692052Y-138730151D01*
X221692049Y-138730150D01*
X221689462Y-138729707D01*
X221686848Y-138729484D01*
X221686844Y-138729484D01*
X221219682Y-138689723D01*
X221219672Y-138689722D01*
X221217057Y-138689500D01*
X220742943Y-138689500D01*
X220740328Y-138689722D01*
X220740317Y-138689723D01*
X220273155Y-138729484D01*
X220273148Y-138729484D01*
X220270538Y-138729707D01*
X220267953Y-138730150D01*
X220267947Y-138730151D01*
X219805845Y-138809386D01*
X219805822Y-138809390D01*
X219803244Y-138809833D01*
X219800715Y-138810491D01*
X219800694Y-138810496D01*
X219346975Y-138928635D01*
X219346951Y-138928642D01*
X219344429Y-138929299D01*
X219341960Y-138930171D01*
X219341948Y-138930175D01*
X218899878Y-139086368D01*
X218899862Y-139086374D01*
X218897398Y-139087245D01*
X218895015Y-139088322D01*
X218894998Y-139088329D01*
X218467783Y-139281442D01*
X218467760Y-139281453D01*
X218465372Y-139282533D01*
X218463088Y-139283808D01*
X218463064Y-139283821D01*
X218053753Y-139512477D01*
X218053747Y-139512480D01*
X218051464Y-139513756D01*
X218049306Y-139515214D01*
X218049289Y-139515225D01*
X217660852Y-139777763D01*
X217660845Y-139777768D01*
X217658657Y-139779247D01*
X217656608Y-139780901D01*
X217656591Y-139780914D01*
X217291842Y-140075429D01*
X217291827Y-140075441D01*
X217289780Y-140077095D01*
X217287878Y-140078916D01*
X217287871Y-140078924D01*
X216949391Y-140403330D01*
X216949378Y-140403342D01*
X216947490Y-140405153D01*
X216945761Y-140407116D01*
X216945749Y-140407130D01*
X216635996Y-140759078D01*
X216635986Y-140759089D01*
X216634256Y-140761056D01*
X216632702Y-140763156D01*
X216632694Y-140763167D01*
X216353888Y-141140136D01*
X216353871Y-141140160D01*
X216352332Y-141142242D01*
X216350964Y-141144462D01*
X216350957Y-141144474D01*
X216105128Y-141543726D01*
X216105118Y-141543743D01*
X216103751Y-141545964D01*
X216102572Y-141548300D01*
X216102566Y-141548313D01*
X215915244Y-141919844D01*
X215890303Y-141969312D01*
X215889329Y-141971735D01*
X215889319Y-141971758D01*
X215714506Y-142406800D01*
X215713527Y-142409237D01*
X215712761Y-142411737D01*
X215712760Y-142411741D01*
X215575468Y-142860045D01*
X215575464Y-142860059D01*
X215574696Y-142862568D01*
X215574143Y-142865132D01*
X215574139Y-142865149D01*
X215475363Y-143323471D01*
X215475360Y-143323486D01*
X215474810Y-143326040D01*
X215474478Y-143328631D01*
X215474476Y-143328644D01*
X215468557Y-143374869D01*
X215414589Y-143796314D01*
X215414477Y-143798947D01*
X215414477Y-143798949D01*
X215394578Y-144267363D01*
X215394578Y-144267386D01*
X215394467Y-144270000D01*
X215394578Y-144272613D01*
X215394578Y-144272636D01*
X215410850Y-144655665D01*
X215414589Y-144743686D01*
X215414922Y-144746292D01*
X215414923Y-144746295D01*
X215473491Y-145203666D01*
X215474810Y-145213960D01*
X215475361Y-145216517D01*
X215475363Y-145216528D01*
X215574139Y-145674850D01*
X215574142Y-145674861D01*
X215574696Y-145677432D01*
X215575465Y-145679946D01*
X215575468Y-145679954D01*
X215624005Y-145838444D01*
X215713527Y-146130763D01*
X215724805Y-146158830D01*
X215889319Y-146568241D01*
X215889325Y-146568255D01*
X215890303Y-146570688D01*
X216103751Y-146994036D01*
X216352332Y-147397758D01*
X216353879Y-147399849D01*
X216353888Y-147399863D01*
X216623591Y-147764523D01*
X216634256Y-147778944D01*
X216947490Y-148134847D01*
X217289780Y-148462905D01*
X217658657Y-148760753D01*
X218051464Y-149026244D01*
X218334388Y-149184295D01*
X218463064Y-149256178D01*
X218463069Y-149256181D01*
X218465372Y-149257467D01*
X218897398Y-149452755D01*
X219344429Y-149610701D01*
X219803244Y-149730167D01*
X220270538Y-149810293D01*
X220742943Y-149850500D01*
X220745574Y-149850500D01*
X221214426Y-149850500D01*
X221217057Y-149850500D01*
X221689462Y-149810293D01*
X222156756Y-149730167D01*
X222615571Y-149610701D01*
X223062602Y-149452755D01*
X223494628Y-149257467D01*
X223908536Y-149026244D01*
X224301343Y-148760753D01*
X224670220Y-148462905D01*
X225012510Y-148134847D01*
X225325744Y-147778944D01*
X225607668Y-147397758D01*
X225856249Y-146994036D01*
X226069697Y-146570688D01*
X226155055Y-146358265D01*
X226198316Y-146303400D01*
X226264372Y-146280633D01*
X226270113Y-146280500D01*
X228724333Y-146280500D01*
X228724335Y-146280500D01*
X228780705Y-146271092D01*
X228790859Y-146269827D01*
X228847821Y-146265108D01*
X228903221Y-146251078D01*
X228913237Y-146248978D01*
X228969614Y-146239571D01*
X229023668Y-146221013D01*
X229033482Y-146218091D01*
X229088881Y-146204063D01*
X229141220Y-146181103D01*
X229150745Y-146177387D01*
X229204810Y-146158828D01*
X229255089Y-146131617D01*
X229264275Y-146127126D01*
X229316607Y-146104173D01*
X229364455Y-146072911D01*
X229373225Y-146067685D01*
X229423509Y-146040474D01*
X229468615Y-146005365D01*
X229476941Y-145999420D01*
X229524785Y-145968164D01*
X229566846Y-145929442D01*
X229574625Y-145922854D01*
X229619744Y-145887738D01*
X229658468Y-145845671D01*
X229665671Y-145838468D01*
X229707738Y-145799744D01*
X229742854Y-145754625D01*
X229749442Y-145746846D01*
X229788164Y-145704785D01*
X229819420Y-145656941D01*
X229825365Y-145648616D01*
X229825929Y-145647890D01*
X229860474Y-145603509D01*
X229887685Y-145553225D01*
X229892911Y-145544455D01*
X229924173Y-145496607D01*
X229947126Y-145444275D01*
X229951617Y-145435089D01*
X229978828Y-145384810D01*
X229997387Y-145330745D01*
X230001103Y-145321220D01*
X230024063Y-145268881D01*
X230038091Y-145213482D01*
X230041014Y-145203666D01*
X230059571Y-145149614D01*
X230068978Y-145093237D01*
X230071079Y-145083219D01*
X230085107Y-145027825D01*
X230085107Y-145027824D01*
X230085108Y-145027821D01*
X230089827Y-144970859D01*
X230091094Y-144960696D01*
X230100500Y-144904335D01*
X230100500Y-144655665D01*
X230100500Y-94013595D01*
X230100606Y-94008471D01*
X230104357Y-93917781D01*
X230098463Y-93870496D01*
X230093126Y-93827681D01*
X230092604Y-93822647D01*
X230085108Y-93732179D01*
X230079344Y-93709422D01*
X230076502Y-93694315D01*
X230073599Y-93671021D01*
X230073599Y-93671019D01*
X230047685Y-93583979D01*
X230046349Y-93579125D01*
X230024063Y-93491119D01*
X230014629Y-93469613D01*
X230009345Y-93455194D01*
X230002644Y-93432687D01*
X229962776Y-93351136D01*
X229960620Y-93346485D01*
X229953523Y-93330306D01*
X229924173Y-93263393D01*
X229911334Y-93243741D01*
X229903742Y-93230379D01*
X229902347Y-93227526D01*
X229893429Y-93209284D01*
X229840688Y-93135417D01*
X229837796Y-93131184D01*
X229829833Y-93118995D01*
X229788164Y-93055215D01*
X229772259Y-93037938D01*
X229762577Y-93026015D01*
X229748931Y-93006903D01*
X229684771Y-92942743D01*
X229681222Y-92939045D01*
X229619743Y-92872261D01*
X229601212Y-92857838D01*
X229589692Y-92847664D01*
X229573096Y-92831068D01*
X229499242Y-92778336D01*
X229495135Y-92775273D01*
X229423510Y-92719527D01*
X229423509Y-92719526D01*
X229414435Y-92714615D01*
X229402855Y-92708348D01*
X229389822Y-92700212D01*
X229370714Y-92686569D01*
X229289182Y-92646710D01*
X229284627Y-92644365D01*
X229204812Y-92601172D01*
X229182602Y-92593547D01*
X229168413Y-92587670D01*
X229157703Y-92582435D01*
X229147314Y-92577356D01*
X229147311Y-92577355D01*
X229060323Y-92551456D01*
X229055445Y-92549894D01*
X228969612Y-92520428D01*
X228946459Y-92516565D01*
X228931486Y-92513101D01*
X228908981Y-92506401D01*
X228818899Y-92495172D01*
X228813828Y-92494433D01*
X228724335Y-92479500D01*
X228700865Y-92479500D01*
X228685527Y-92478548D01*
X228662219Y-92475642D01*
X228575160Y-92479243D01*
X228571526Y-92479394D01*
X228566404Y-92479500D01*
X228475664Y-92479500D01*
X228452512Y-92483363D01*
X228437231Y-92484948D01*
X228413763Y-92485919D01*
X228324929Y-92504545D01*
X228319893Y-92505493D01*
X228230384Y-92520429D01*
X228208168Y-92528055D01*
X228193363Y-92532131D01*
X228170385Y-92536949D01*
X228085846Y-92569937D01*
X228081035Y-92571701D01*
X227995185Y-92601173D01*
X227974531Y-92612350D01*
X227960602Y-92618807D01*
X227938728Y-92627343D01*
X227860763Y-92673799D01*
X227856310Y-92676329D01*
X227776490Y-92719526D01*
X227757960Y-92733948D01*
X227745281Y-92742611D01*
X227725109Y-92754632D01*
X227725106Y-92754634D01*
X227697121Y-92778336D01*
X227683203Y-92790124D01*
X227619323Y-92818429D01*
X227603063Y-92819500D01*
X139460865Y-92819500D01*
X139445527Y-92818548D01*
X139422219Y-92815642D01*
X139335160Y-92819243D01*
X139331526Y-92819394D01*
X139326404Y-92819500D01*
X139297933Y-92819500D01*
X139295406Y-92819709D01*
X139295390Y-92819710D01*
X139269551Y-92821851D01*
X139264440Y-92822168D01*
X139173763Y-92825919D01*
X139150776Y-92830738D01*
X139135579Y-92832952D01*
X139112180Y-92834891D01*
X139024215Y-92857166D01*
X139019225Y-92858320D01*
X138930385Y-92876949D01*
X138908501Y-92885488D01*
X138893874Y-92890174D01*
X138871116Y-92895937D01*
X138788023Y-92932385D01*
X138783291Y-92934346D01*
X138698723Y-92967345D01*
X138678547Y-92979367D01*
X138664895Y-92986394D01*
X138643396Y-92995825D01*
X138567410Y-93045468D01*
X138563065Y-93048180D01*
X138485104Y-93094635D01*
X138467183Y-93109813D01*
X138454868Y-93118995D01*
X138435215Y-93131835D01*
X138368447Y-93193299D01*
X138364613Y-93196685D01*
X138342874Y-93215098D01*
X138341059Y-93216911D01*
X138341061Y-93216911D01*
X138322738Y-93235233D01*
X138319045Y-93238775D01*
X138252262Y-93300254D01*
X138237832Y-93318793D01*
X138227664Y-93330306D01*
X131494791Y-100063181D01*
X131433468Y-100096666D01*
X131407110Y-100099500D01*
X121799598Y-100099500D01*
X121747114Y-100108257D01*
X121736948Y-100109524D01*
X121672181Y-100114891D01*
X121609171Y-100130847D01*
X121599145Y-100132949D01*
X121562086Y-100139134D01*
X121526552Y-100151332D01*
X121516734Y-100154255D01*
X121431123Y-100175935D01*
X121419553Y-100181010D01*
X121350226Y-100211418D01*
X121340702Y-100215135D01*
X121334336Y-100217320D01*
X121328416Y-100220524D01*
X121319223Y-100225017D01*
X121203393Y-100275826D01*
X120995216Y-100411835D01*
X120995214Y-100411836D01*
X120995215Y-100411836D01*
X120839221Y-100555439D01*
X120812261Y-100580257D01*
X120738200Y-100675409D01*
X120681489Y-100716222D01*
X120611716Y-100719895D01*
X120551033Y-100685263D01*
X120536538Y-100667067D01*
X120530153Y-100657295D01*
X120367126Y-100480201D01*
X120177164Y-100332348D01*
X119965460Y-100217780D01*
X119737792Y-100139619D01*
X119630000Y-100121633D01*
X119629999Y-101108316D01*
X119601181Y-101090791D01*
X119455596Y-101050000D01*
X119342378Y-101050000D01*
X119230217Y-101065416D01*
X119130000Y-101108946D01*
X119130000Y-100121633D01*
X119129999Y-100121633D01*
X119022207Y-100139619D01*
X118794539Y-100217780D01*
X118582836Y-100332347D01*
X118440252Y-100443325D01*
X118375258Y-100468967D01*
X118306718Y-100455400D01*
X118256393Y-100406932D01*
X118247909Y-100388806D01*
X118236296Y-100357669D01*
X118150046Y-100242454D01*
X118034831Y-100156204D01*
X117899983Y-100105909D01*
X117840373Y-100099500D01*
X117837051Y-100099500D01*
X116940865Y-100099500D01*
X116925529Y-100098548D01*
X116922374Y-100098154D01*
X116902218Y-100095642D01*
X116811515Y-100099394D01*
X116806391Y-100099500D01*
X115842939Y-100099500D01*
X115842920Y-100099500D01*
X115839628Y-100099501D01*
X115836348Y-100099853D01*
X115836340Y-100099854D01*
X115780015Y-100105909D01*
X115645169Y-100156204D01*
X115555991Y-100222963D01*
X115529954Y-100242454D01*
X115524446Y-100249811D01*
X115468514Y-100291681D01*
X115425180Y-100299500D01*
X98164820Y-100299500D01*
X98097781Y-100279815D01*
X98065554Y-100249812D01*
X98060046Y-100242454D01*
X98060044Y-100242452D01*
X98060043Y-100242451D01*
X98052687Y-100236944D01*
X98010817Y-100181010D01*
X98003000Y-100137679D01*
X98003000Y-89151945D01*
X98005639Y-89126498D01*
X98014081Y-89086237D01*
X98015050Y-89062773D01*
X98016636Y-89047487D01*
X98020500Y-89024335D01*
X98020500Y-88933596D01*
X98020606Y-88928471D01*
X98024357Y-88837780D01*
X98021452Y-88814473D01*
X98020500Y-88799135D01*
X98020500Y-88775667D01*
X98020500Y-88775665D01*
X98005559Y-88686132D01*
X98004825Y-88681090D01*
X97993599Y-88591018D01*
X97986898Y-88568512D01*
X97983433Y-88553533D01*
X97979571Y-88530388D01*
X97979571Y-88530386D01*
X97950094Y-88444523D01*
X97948543Y-88439680D01*
X97922643Y-88352682D01*
X97912333Y-88331593D01*
X97906452Y-88317397D01*
X97898828Y-88295190D01*
X97855628Y-88215363D01*
X97853282Y-88210805D01*
X97813431Y-88129287D01*
X97799784Y-88110174D01*
X97791648Y-88097139D01*
X97780474Y-88076491D01*
X97724715Y-88004852D01*
X97721672Y-88000770D01*
X97668933Y-87926905D01*
X97652336Y-87910308D01*
X97642160Y-87898786D01*
X97627736Y-87880254D01*
X97560953Y-87818776D01*
X97557278Y-87815250D01*
X97493096Y-87751068D01*
X97473987Y-87737424D01*
X97462060Y-87727738D01*
X97444787Y-87711837D01*
X97368814Y-87662202D01*
X97364581Y-87659310D01*
X97290717Y-87606571D01*
X97277469Y-87600094D01*
X97269615Y-87596254D01*
X97256262Y-87588667D01*
X97236610Y-87575828D01*
X97153513Y-87539378D01*
X97148864Y-87537223D01*
X97128041Y-87527043D01*
X97067314Y-87497356D01*
X97067311Y-87497355D01*
X97044802Y-87490653D01*
X97030382Y-87485367D01*
X97008881Y-87475936D01*
X96920927Y-87453663D01*
X96915987Y-87452303D01*
X96828984Y-87426401D01*
X96805676Y-87423496D01*
X96790576Y-87420654D01*
X96767818Y-87414891D01*
X96677396Y-87407398D01*
X96672301Y-87406870D01*
X96582220Y-87395642D01*
X96495298Y-87399238D01*
X96491526Y-87399394D01*
X96486404Y-87399500D01*
X59861439Y-87399500D01*
X59794400Y-87379815D01*
X59787129Y-87374768D01*
X59762331Y-87356204D01*
X59627483Y-87305909D01*
X59567873Y-87299500D01*
X59564550Y-87299500D01*
X57275439Y-87299500D01*
X57275420Y-87299500D01*
X57272128Y-87299501D01*
X57268848Y-87299853D01*
X57268840Y-87299854D01*
X57212515Y-87305909D01*
X57077669Y-87356204D01*
X56962454Y-87442454D01*
X56876204Y-87557668D01*
X56825909Y-87692516D01*
X56821081Y-87737426D01*
X56819500Y-87752127D01*
X56819500Y-87755448D01*
X56819500Y-87755449D01*
X56819500Y-90044560D01*
X56819500Y-90044578D01*
X17780000Y-90044578D01*
X17780000Y-81404000D01*
X17799685Y-81336961D01*
X17852489Y-81291206D01*
X17904000Y-81280000D01*
X238636000Y-81280000D01*
X238703039Y-81299685D01*
G37*
%TD.AperFunction*%
%TD*%
M02*
